<svg xmlns="http://www.w3.org/2000/svg" viewBox="0 0 1190 227" width="100%" height="100%">
  <path d="M389.5,87 L406,87 L394.7,67 L378.2,67 Z M368.3,87 L384.8,87 L373.5,67 L357,67 Z M346.2,87 L362.7,87 L351.4,67 L335,67 Z" 
  fill="#4fa72e" fill-opacity="1.0"/>

  <path d="M0,227 L0,91 L28,45 L178,45 L191.7,68 L329.8,68 L342,91 L1175.7,90.7 L1189,113.8 L1189,149.1" 
  stroke="#4fa72e" stroke-width="4" fill="none"/>

  <path d="M5,92 L31,50 L175,50 L189,72 L327,72 L337,91 Z" fill="#4fa72e" fill-opacity="0.49" stroke="#4fa72e" stroke-width="2"/>

  <text x="35" y="82" font-family="'Source Sans Pro', sans-serif" font-size="30" fill="#ffffff" font-weight="400">SYS  LOG</text>

  <path d="M1180,86 L1180,30 L1166.8,7 L1089,7" stroke="#4fa72e" stroke-width="2" fill="none"/>
  <path d="M1156,86 L1180,86 L1190,104" stroke="#4fa72e" stroke-width="2" fill="none"/>

  <circle cx="1080" cy="15" r="14" fill="#4fa72e" fill-opacity="0.8" stroke="#4fa72e" stroke-width="2"/>
</svg>
