<?xml version="1.0" encoding="UTF-8"?>
<svg version="1.1" xmlns="http://www.w3.org/2000/svg" width="200" height="199">
<path d="M0 0 C0.721875 0.00257812 1.44375 0.00515625 2.1875 0.0078125 C2.909375 0.00523438 3.63125 0.00265625 4.375 0 C6.1875 0.1328125 6.1875 0.1328125 7.1875 1.1328125 C7.64074663 3.67727624 8.02285079 6.22755306 8.39453125 8.78515625 C8.95274909 11.22228015 8.95274909 11.22228015 10.86862183 12.2625885 C13.72710465 13.33531426 16.02839024 13.39155379 19.08251953 13.40405273 C20.86554977 13.41933266 20.86554977 13.41933266 22.68460083 13.43492126 C23.96688568 13.43706131 25.24917053 13.43920135 26.5703125 13.44140625 C27.90828544 13.45251596 29.24624825 13.46491154 30.584198 13.47853088 C36.25297871 13.5337495 41.92183308 13.56446708 47.59082031 13.58911133 C51.06451406 13.60511813 54.5378648 13.63547931 58.01137924 13.67387581 C59.95976016 13.69098431 61.90826395 13.69157954 63.85671997 13.6917572 C75.32088553 13.81838685 84.06216915 15.60507491 92.75 23.4453125 C99.20988206 30.56774657 101.71630049 36.86581434 104.1875 46.1328125 C104.364021 46.71361572 104.54054199 47.29441895 104.72241211 47.89282227 C107.85081447 62.960062 106.63287202 83.95882945 101.1875 98.1328125 C100.93548828 98.79619629 100.68347656 99.45958008 100.42382812 100.14306641 C90.39969947 126.02671277 90.39969947 126.02671277 80.1875 131.1328125 C74.17518855 131.76955424 69.42920415 131.19047325 64.1875 128.1328125 C63.125 126.1328125 63.125 126.1328125 63.1875 124.1328125 C64.1775 122.6478125 64.1775 122.6478125 65.1875 121.1328125 C65.8475 121.1328125 66.5075 121.1328125 67.1875 121.1328125 C67.1875 120.4728125 67.1875 119.8128125 67.1875 119.1328125 C68.34805258 117.93812603 69.51435022 116.74855094 70.70703125 115.5859375 C82.05586555 104.44671227 90.16964775 89.26013975 90.625 73.1953125 C90.40326196 67.06056003 89.42365976 63.24809876 84.875 58.9453125 C76.5026506 53.2988443 69.11581235 52.96356802 59.3125 53.0078125 C58.27416016 53.00974609 57.23582031 53.01167969 56.16601562 53.01367188 C44.82797361 53.07495859 33.50986064 53.56244707 22.1875 54.1328125 C21.37145001 56.0479704 20.55979368 57.96500084 19.75 59.8828125 C19.29753906 60.95015625 18.84507813 62.0175 18.37890625 63.1171875 C13.13181464 76.39835052 17.0556954 88.58620798 21.625 101.3203125 C25.94451342 113.52879773 29.6436962 124.531728 27 137.5703125 C26.86126465 138.29404053 26.7225293 139.01776855 26.57958984 139.76342773 C24.1354308 151.93436966 20.79976364 163.76920099 10.1875 171.1328125 C2.52868129 174.39188429 -6.51770307 175.16875103 -14.6875 173.5703125 C-17.90062904 171.39672521 -18.96507135 168.78529569 -19.8125 165.1328125 C-20.82901263 156.27662029 -19.62774097 146.08162608 -14.75 138.4453125 C-12.8125 136.1328125 -12.8125 136.1328125 -10.8125 135.1328125 C-5.18212541 134.72024195 0.35681341 135.30227821 5.92578125 136.109375 C8.54880481 136.13655659 9.96145006 135.46742368 12.1875 134.1328125 C11.55887058 126.96469088 9.69426485 120.34004074 7.6875 113.4453125 C7.05044898 111.233543 6.41497246 109.02131925 5.78125 106.80859375 C5.49958984 105.83833252 5.21792969 104.86807129 4.92773438 103.8684082 C0.22654472 86.4947835 3.37527767 68.4821461 10.1875 52.1328125 C9.28 51.5965625 8.3725 51.0603125 7.4375 50.5078125 C0.58112748 45.84547918 -1.16465275 38.86824832 -2.8125 31.1328125 C-4.4770706 21.32656668 -4.57812561 10.94184366 -2.8125 1.1328125 C-1.8125 0.1328125 -1.8125 0.1328125 0 0 Z " fill="#4DA72D" transform="translate(57.8125,16.8671875)"/>
<path d="M0 0 C1.03443026 2.68951867 1.05839482 3.8340489 0.0859375 6.59765625 C-1.44401329 11.39113516 -1.76273565 16.16963882 -2.2109375 21.16210938 C-2.40920548 23.11573264 -2.69730542 25.05981185 -3 27 C-3.66 27.33 -4.32 27.66 -5 28 C-5.38558031 19.14593366 -4.56943546 11.48831358 -2 3 C-1.34 3 -0.68 3 0 3 C0 2.01 0 1.02 0 0 Z " fill="#57AA37" transform="translate(66,78)"/>
<path d="M0 0 C0.66 0.66 1.32 1.32 2 2 C1.02188201 4.45875532 0.04255369 6.91701637 -0.9375 9.375 C-1.21529297 10.07367188 -1.49308594 10.77234375 -1.77929688 11.4921875 C-3.88671875 16.7734375 -3.88671875 16.7734375 -5 19 C-5.66 19 -6.32 19 -7 19 C-6.14980005 15.16443886 -4.82255998 11.50433173 -3.5 7.8125 C-3.27441406 7.17119141 -3.04882812 6.52988281 -2.81640625 5.86914062 C-1.12211361 1.12211361 -1.12211361 1.12211361 0 0 Z " fill="#57AA36" transform="translate(158,110)"/>
<path d="M0 0 C5.1069148 0.56743498 7.66463617 4.48658766 10.875 8.125 C11.431875 9.053125 11.431875 9.053125 12 10 C11.67 10.99 11.34 11.98 11 13 C10.34 11.35 9.68 9.7 9 8 C8.34 8 7.68 8 7 8 C4.875 6.125 4.875 6.125 3 4 C3 3.34 3 2.68 3 2 C2.01 1.67 1.02 1.34 0 1 C0 0.67 0 0.34 0 0 Z " fill="#5AAC3E" transform="translate(144,37)"/>
<path d="M0 0 C0.66 0.33 1.32 0.66 2 1 C1.33035714 9.03571429 1.33035714 9.03571429 -2 13 C-1.85966889 11.02043559 -1.7125877 9.04134859 -1.5625 7.0625 C-1.48128906 5.96035156 -1.40007812 4.85820313 -1.31640625 3.72265625 C-1 1 -1 1 0 0 Z " fill="#59AC3D" transform="translate(161,95)"/>
<path d="M0 0 C0.33 0 0.66 0 1 0 C1.33 3.63 1.66 7.26 2 11 C1.34 11 0.68 11 0 11 C-1.28571429 3.57142857 -1.28571429 3.57142857 0 0 Z " fill="#53AD38" transform="translate(56,42)"/>
</svg>
