<?xml version="1.0" encoding="UTF-8"?>
<svg version="1.1" xmlns="http://www.w3.org/2000/svg" width="587" height="170">
<path d="M0 0 C193.71 0 387.42 0 587 0 C587 56.1 587 112.2 587 170 C393.29 170 199.58 170 0 170 C0 113.9 0 57.8 0 0 Z " fill="#4FA72F" transform="translate(0,0)"/>
<path d="M0 0 C37.95 0 75.9 0 115 0 C115 56.1 115 112.2 115 170 C77.05 170 39.1 170 0 170 C0 113.9 0 57.8 0 0 Z " fill="#FDFEFC" transform="translate(0,0)"/>
<path d="M0 0 C14.355 -0.0825 28.71 -0.165 43.5 -0.25 C48.02138672 -0.28641602 52.54277344 -0.32283203 57.20117188 -0.36035156 C62.75097656 -0.37841797 62.75097656 -0.37841797 65.35461426 -0.3817749 C67.16096953 -0.38789028 68.96730914 -0.40190263 70.77355957 -0.42230225 C73.52054922 -0.45175756 76.26654701 -0.45561833 79.01367188 -0.45410156 C79.8093029 -0.468494 80.60493393 -0.48288643 81.42467499 -0.497715 C88.45711078 -0.44604428 93.51949413 1.85022824 98.8125 6.4375 C103.25812833 11.64523605 104.40814931 15.19461044 104.1171875 22.01171875 C104.08409587 23.59048357 104.05156173 25.16926016 104.01953125 26.74804688 C103.95156266 29.2122751 103.875417 31.67580194 103.78759766 34.1394043 C103.31438941 46.33052756 103.31438941 46.33052756 107.85595703 57.4309082 C110.12194864 62.51947622 109.65864724 68.19053459 109.54199219 73.66943359 C109.49977723 75.76103756 109.50096803 77.84944346 109.5078125 79.94140625 C109.44410815 88.12984613 108.6981266 94.11286698 103.3125 100.625 C102.87550781 101.17414063 102.43851562 101.72328125 101.98828125 102.2890625 C96.09287203 107.36212584 90.24475608 108.58536675 82.64648438 108.45410156 C81.73359901 108.4545837 80.82071365 108.45506584 79.8801651 108.45556259 C76.95095113 108.45259795 74.0227797 108.42223586 71.09375 108.390625 C69.27507008 108.38473733 67.45638338 108.38066064 65.63769531 108.37841797 C58.92502625 108.35752206 52.21250267 108.30167685 45.5 108.25 C22.9775 108.12625 22.9775 108.12625 0 108 C0 72.36 0 36.72 0 0 Z " fill="#FCFDFB" transform="translate(132,15)"/>
<path d="M0 0 C9.54476889 -0.06784391 19.08937697 -0.12285536 28.63433266 -0.15543652 C33.0666972 -0.17107579 37.49888786 -0.1922822 41.93115234 -0.22631836 C46.21054157 -0.25897398 50.4897638 -0.27686609 54.76926804 -0.28463173 C56.39991254 -0.29016412 58.03054817 -0.3009676 59.66112137 -0.31719017 C61.94957299 -0.33904734 64.23733928 -0.34196353 66.52587891 -0.34057617 C68.47779648 -0.35056892 68.47779648 -0.35056892 70.46914673 -0.36076355 C75.70938607 0.17465585 79.67718924 2.42209644 83.6875 5.75 C84.52861328 6.42289063 84.52861328 6.42289063 85.38671875 7.109375 C89.54412897 11.98149739 90.37392582 17.07587076 90.34057617 23.31225586 C90.34123329 24.3525444 90.34123329 24.3525444 90.34190369 25.41384888 C90.33983196 27.68114467 90.3165793 29.94767891 90.29296875 32.21484375 C90.287367 33.79667253 90.28309964 35.37850654 90.28010559 36.96034241 C90.26870229 41.10489507 90.2392746 45.24912767 90.20599365 49.39355469 C90.17519488 53.6301643 90.16157938 57.8668261 90.14648438 62.10351562 C90.11440003 70.40248992 90.06325906 78.70120504 90 87 C80.35948189 87.11611466 70.7192064 87.20482664 61.07814026 87.25906086 C56.6008322 87.28509753 52.12400437 87.32038604 47.64697266 87.37719727 C43.32215693 87.43173028 38.99780161 87.4614651 34.67266846 87.47438622 C33.02688352 87.4835881 31.38112232 87.50155741 29.73553467 87.52865028 C14.18584007 87.77435811 14.18584007 87.77435811 8.42651367 83.41838074 C3.42510626 78.44548768 0.1823719 73.18405649 -0.22705078 66.03588867 C-0.2265551 64.49654576 -0.21567812 62.95717702 -0.1953125 61.41796875 C-0.19329834 60.69565063 -0.19128418 59.97333252 -0.18920898 59.22912598 C-0.17879886 56.54851875 -0.15087645 53.86800254 -0.125 51.1875 C-0.08375 45.185625 -0.0425 39.18375 0 33 C22.77 33 45.54 33 69 33 C69 28.71 69 24.42 69 20 C46.23 20 23.46 20 0 20 C0 13.4 0 6.8 0 0 Z " fill="#F9FCF8" transform="translate(255,36)"/>
<path d="M0 0 C9.51022088 -0.09056026 19.02015289 -0.16386499 28.53070831 -0.20724869 C32.94739368 -0.22807628 37.3637674 -0.25630492 41.78027344 -0.30175781 C46.04671774 -0.34538889 50.31286327 -0.36917339 54.57951355 -0.37950897 C56.20294392 -0.38686951 57.82635893 -0.40124281 59.44966125 -0.42292023 C76.51064272 -0.64158009 76.51064272 -0.64158009 84.0234375 5.7109375 C84.46945312 6.26007812 84.91546875 6.80921875 85.375 7.375 C86.06722656 8.19097656 86.06722656 8.19097656 86.7734375 9.0234375 C89.76597697 13.84581003 90.24719072 18.52817051 90.22705078 24.10693359 C90.22734283 24.79055969 90.22763489 25.47418579 90.22793579 26.17852783 C90.2265521 28.41863077 90.21103684 30.65839329 90.1953125 32.8984375 C90.19157894 34.45927753 90.18873359 36.02011992 90.18673706 37.58096313 C90.17912758 41.6744848 90.15950237 45.7678629 90.1373291 49.86132812 C90.11681263 54.04425108 90.10772297 58.2271974 90.09765625 62.41015625 C90.07625375 70.60683647 90.0421505 78.80340034 90 87 C80.45525941 87.0695871 70.91060649 87.12285542 61.36566734 87.15543652 C56.9333028 87.17107579 52.50111214 87.1922822 48.06884766 87.22631836 C43.78945843 87.25897398 39.5102362 87.27686609 35.23073196 87.28463173 C33.60008746 87.29016412 31.96945183 87.3009676 30.33887863 87.31719017 C28.05042701 87.33904734 25.76266072 87.34196353 23.47412109 87.34057617 C21.52220352 87.35056892 21.52220352 87.35056892 19.53085327 87.36076355 C13.77099692 86.77225248 9.92399168 84.46034249 6.1875 80.125 C5.60355469 79.46757813 5.01960938 78.81015625 4.41796875 78.1328125 C2.82651702 75.73905866 2.37934033 73.82780977 2 71 C1.34 71 0.68 71 0 71 C0 58.46 0 45.92 0 33 C22.77 33 45.54 33 69 33 C69 28.71 69 24.42 69 20 C46.23 20 23.46 20 0 20 C0 13.4 0 6.8 0 0 Z " fill="#FAFCF9" transform="translate(458,36)"/>
<path d="M0 0 C6.6 0 13.2 0 20 0 C20 22.11 20 44.22 20 67 C36.17 67 52.34 67 69 67 C69 44.89 69 22.78 69 0 C75.6 0 82.2 0 89 0 C89.04518776 13.1955214 89.0818799 26.39099138 89.10362434 39.58657265 C89.11406066 45.71383159 89.12821723 51.84103483 89.15087891 57.96826172 C89.17261249 63.88157066 89.18456977 69.79482604 89.18975449 75.70817184 C89.1934493 77.96400165 89.20066429 80.21982853 89.21146011 82.47563553 C89.22598169 85.6356769 89.22797764 88.79549703 89.22705078 91.95556641 C89.23424133 92.88777008 89.24143188 93.81997375 89.24884033 94.78042603 C89.22064051 103.66801968 86.71733206 109.22057307 81.25 116.25 C74.81789237 121.25275038 65.71405541 120.27739903 58.00390625 120.23046875 C56.77461899 120.23001053 55.54533173 120.22955231 54.27879333 120.2290802 C51.69439726 120.22607073 49.11000278 120.21822377 46.52563477 120.20581055 C42.55146844 120.18744903 38.57771963 120.18530175 34.60351562 120.18554688 C32.0911438 120.18063523 29.57877356 120.17480846 27.06640625 120.16796875 C25.87173233 120.16685593 24.67705841 120.1657431 23.44618225 120.16459656 C22.35091721 120.15821671 21.25565216 120.15183685 20.12719727 120.14526367 C18.67447166 120.13954597 18.67447166 120.13954597 17.19239807 120.13371277 C15 120 15 120 14 119 C14 112.4 14 105.8 14 99 C32.15 99 50.3 99 69 99 C69 95.04 69 91.08 69 87 C66.6012561 87.0314209 66.6012561 87.0314209 64.15405273 87.06347656 C58.20720412 87.1360098 52.26039444 87.18184896 46.31323242 87.21972656 C43.74187641 87.23981149 41.17056591 87.26708479 38.59936523 87.30175781 C34.89816034 87.35041081 31.19756067 87.37300083 27.49609375 87.390625 C25.77851112 87.42159271 25.77851112 87.42159271 24.02622986 87.45318604 C17.43294353 87.45502946 13.34966819 86.95774248 8 83 C6.07421875 81 6.07421875 81 4.6875 79 C4.21699219 78.34 3.74648438 77.68 3.26171875 77 C0.3908669 72.44929985 -0.24651111 69.51613357 -0.22705078 64.02832031 C-0.22734283 63.3352327 -0.22763489 62.64214508 -0.22793579 61.92805481 C-0.22654608 59.64461608 -0.21100206 57.3615065 -0.1953125 55.078125 C-0.19158109 53.49200621 -0.18873472 51.90588511 -0.18673706 50.31976318 C-0.17911068 46.15059007 -0.15947078 41.98155689 -0.1373291 37.81243896 C-0.11684921 33.55596815 -0.10773076 29.29947466 -0.09765625 25.04296875 C-0.07622389 16.69524121 -0.0410499 8.34765415 0 0 Z " fill="#FCFDFB" transform="translate(358,36)"/>
<path d="M0 0 C1.65 0 3.3 0 5 0 C6.32 2.97 7.64 5.94 9 9 C10.27528564 9.0093457 11.55057129 9.01869141 12.86450195 9.02832031 C17.64153692 9.06849574 22.41794638 9.13432887 27.19458008 9.20751953 C29.25341699 9.2355704 31.31235841 9.2568631 33.37133789 9.27099609 C58.32114699 9.45244925 58.32114699 9.45244925 66.04785156 15.63989258 C73.54076647 23.26349786 75.50110191 32.90610878 75.546875 43.28515625 C75.53140625 44.46980469 75.5159375 45.65445313 75.5 46.875 C75.52320312 48.64037109 75.52320312 48.64037109 75.546875 50.44140625 C75.48002259 65.63361602 70.2064467 80.33597359 59.796875 91.59765625 C58 93 58 93 54.3125 93.625 C51.45074014 93.08504531 49.43465001 92.55817601 47 91 C46.57049608 86.52088773 46.57049608 86.52088773 48.46875 84.21875 C49.1390625 83.6515625 49.809375 83.084375 50.5 82.5 C58.31239422 75.17414279 64.09951117 65.60202148 65.37109375 54.8671875 C65.58783805 48.47108406 65.58783805 48.47108406 62.8125 42.875 C60.23425604 41.15617069 57.9503844 39.92726367 55 39 C55 38.34 55 37.68 55 37 C42.46 37.33 29.92 37.66 17 38 C12.61709433 51.14871701 11.86986495 56.88065268 15.875 69.25 C16.14441406 70.12140625 16.41382812 70.9928125 16.69140625 71.890625 C17.74057945 75.24797924 18.80218484 78.53183745 20.171875 81.7734375 C23.58589905 90.9526531 20.22276263 102.19244996 17 111 C14.702788 115.56723805 12.08248045 118.85135747 7.375 121 C2.14845239 122.55684397 -3.62429817 122.81232828 -9 122 C-10.83203125 120.8984375 -10.83203125 120.8984375 -12 119 C-12.94412772 111.63210132 -12.82328109 104.470168 -9 98 C-7 96 -7 96 -5.12060547 95.77294922 C-4.00516357 95.78865967 -4.00516357 95.78865967 -2.8671875 95.8046875 C-2.06152344 95.81113281 -1.25585938 95.81757812 -0.42578125 95.82421875 C0.83685547 95.84935547 0.83685547 95.84935547 2.125 95.875 C2.97449219 95.88402344 3.82398438 95.89304687 4.69921875 95.90234375 C6.79959884 95.92594353 8.89983444 95.96181517 11 96 C9.53614924 89.32395337 7.94726054 82.80794578 5.8125 76.3125 C2.70091643 65.5240751 2.43261141 54.44109116 6.375 43.875 C7.9944566 39.72569319 7.9944566 39.72569319 7 35.6015625 C5.44351593 33.58860955 3.782035 31.81238597 2 30 C-1.03719543 23.92560914 -1.16195407 17.49502757 -1.125 10.8125 C-1.12886719 10.10158203 -1.13273437 9.39066406 -1.13671875 8.65820312 C-1.13078494 5.50438116 -1.00443535 3.01330605 0 0 Z " fill="#53A934" transform="translate(31,28)"/>
<path d="M0 0 C8.71844003 -0.02312611 17.43686956 -0.04091646 26.15533352 -0.05181217 C30.20325742 -0.05704041 34.25116041 -0.06413699 38.29907227 -0.07543945 C42.20235971 -0.08627043 46.10562699 -0.09227728 50.0089283 -0.09487724 C51.50133647 -0.09673111 52.99374348 -0.100351 54.48614311 -0.10573006 C56.56948139 -0.11294331 58.65273531 -0.11399083 60.73608398 -0.11352539 C61.92411118 -0.115746 63.11213837 -0.11796661 64.33616638 -0.12025452 C67 0 67 0 68 1 C68.09932153 2.69558726 68.13080007 4.39525747 68.1328125 6.09375 C68.13410156 7.12371094 68.13539063 8.15367188 68.13671875 9.21484375 C68.13285156 10.29894531 68.12898438 11.38304688 68.125 12.5 C68.12886719 13.58410156 68.13273437 14.66820313 68.13671875 15.78515625 C68.13542969 16.81511719 68.13414062 17.84507813 68.1328125 18.90625 C68.13168457 19.85822266 68.13055664 20.81019531 68.12939453 21.79101562 C68 24 68 24 67 25 C64.94987154 25.09939626 62.89628608 25.12799553 60.84375 25.12939453 C59.52568359 25.13254669 58.20761719 25.13569885 56.84960938 25.13894653 C55.39973925 25.13715675 53.94986942 25.1351058 52.5 25.1328125 C51.02408838 25.13348557 49.54817687 25.13445563 48.07226562 25.13571167 C44.97524971 25.13718848 41.87826258 25.13503464 38.78125 25.13037109 C34.80291451 25.1246738 30.82464648 25.1279529 26.84631348 25.13394356 C23.79752083 25.13754963 20.74874429 25.13641037 17.69995117 25.13381577 C16.23266594 25.13314662 14.76537926 25.13397447 13.2980957 25.13629532 C11.25081407 25.13882257 9.20352734 25.1342906 7.15625 25.12939453 C5.40538086 25.12820114 5.40538086 25.12820114 3.61914062 25.12698364 C1 25 1 25 0 24 C-0.08726223 22.21928754 -0.10699041 20.4351686 -0.09765625 18.65234375 C-0.09443359 17.57275391 -0.09121094 16.49316406 -0.08789062 15.38085938 C-0.07951172 14.24455078 -0.07113281 13.10824219 -0.0625 11.9375 C-0.05798828 10.79732422 -0.05347656 9.65714844 -0.04882812 8.48242188 C-0.03699747 5.65489649 -0.0205141 2.8274736 0 0 Z " fill="#53A934" transform="translate(152,78)"/>
<path d="M0 0 C20.79 0 41.58 0 63 0 C63 7.26 63 14.52 63 22 C61.23276189 23.76723811 58.6968116 23.12762833 56.30273438 23.12939453 C55.08477173 23.13254669 53.86680908 23.13569885 52.61193848 23.13894653 C51.27254195 23.13715675 49.93314576 23.1351058 48.59375 23.1328125 C47.2299396 23.1334856 45.86612932 23.13445567 44.50231934 23.13571167 C41.64069479 23.13718838 38.7791014 23.13503497 35.91748047 23.13037109 C32.24181386 23.12467381 28.56622026 23.12795296 24.89055634 23.13394356 C22.07337896 23.13754991 19.25621902 23.13641025 16.43904114 23.13381577 C15.08339937 23.1331467 13.72775604 23.13397421 12.37211609 23.13629532 C10.48049956 23.13882301 8.58887751 23.13429014 6.69726562 23.12939453 C5.07963318 23.12820114 5.07963318 23.12820114 3.42932129 23.12698364 C1 23 1 23 0 22 C0 14.74 0 7.48 0 0 Z " fill="#51A832" transform="translate(152,35)"/>
<path d="M0 0 C6.96003447 -0.02526838 13.9200572 -0.04283222 20.88012695 -0.05493164 C23.24992312 -0.05997341 25.61971615 -0.06680665 27.98950195 -0.07543945 C31.38754039 -0.0875119 34.78553785 -0.09322971 38.18359375 -0.09765625 C39.25024765 -0.10281754 40.31690155 -0.10797882 41.4158783 -0.11329651 C42.88729027 -0.11340981 42.88729027 -0.11340981 44.38842773 -0.11352539 C45.25668686 -0.115746 46.12494598 -0.11796661 47.01951599 -0.12025452 C49 0 49 0 50 1 C50.07313567 3.53049402 50.09247527 6.03304837 50.0625 8.5625 C50.05798828 9.27341797 50.05347656 9.98433594 50.04882812 10.71679688 C50.03700864 12.47790013 50.01907263 14.23896036 50 16 C43.03996553 16.02526838 36.0799428 16.04283222 29.11987305 16.05493164 C26.75007688 16.05997341 24.38028385 16.06680665 22.01049805 16.07543945 C18.61245961 16.0875119 15.21446215 16.09322971 11.81640625 16.09765625 C10.74975235 16.10281754 9.68309845 16.10797882 8.5841217 16.11329651 C7.60318039 16.11337204 6.62223907 16.11344757 5.61157227 16.11352539 C4.74331314 16.115746 3.87505402 16.11796661 2.98048401 16.12025452 C1 16 1 16 0 15 C-0.07313567 12.46950598 -0.09247527 9.96695163 -0.0625 7.4375 C-0.05798828 6.72658203 -0.05347656 6.01566406 -0.04882812 5.28320312 C-0.03700864 3.52209987 -0.01907263 1.76103964 0 0 Z " fill="#5BAD3E" transform="translate(478,87)"/>
<path d="M0 0 C15.84 0 31.68 0 48 0 C48 4.95 48 9.9 48 15 C32.16 15 16.32 15 0 15 C0 10.05 0 5.1 0 0 Z " fill="#51A832" transform="translate(276,88)"/>
<path d="M0 0 C17.82 0 35.64 0 54 0 C54 0.33 54 0.66 54 1 C36.84 1 19.68 1 2 1 C2 6.94 2 12.88 2 19 C9.60637047 18.89177999 17.21266399 18.77964164 24.81887341 18.66066074 C28.35097936 18.60556493 31.88309378 18.55216687 35.4152832 18.50268555 C39.47876668 18.44568633 43.54210262 18.38123675 47.60546875 18.31640625 C48.8702153 18.29969376 50.13496185 18.28298126 51.43803406 18.26576233 C52.61888077 18.24581711 53.79972748 18.22587189 55.01635742 18.20532227 C56.05338303 18.18977798 57.09040863 18.1742337 58.15885925 18.15821838 C60.86656164 18.00743096 63.36022509 17.60489118 66 17 C65 19 65 19 61.74975586 20.1105957 C55.88477047 21.44012034 49.98789934 21.26689223 44.00390625 21.23046875 C42.77461899 21.23001053 41.54533173 21.22955231 40.27879333 21.2290802 C37.69439726 21.22607073 35.11000278 21.21822377 32.52563477 21.20581055 C28.55146844 21.18744903 24.57771963 21.18530175 20.60351562 21.18554688 C18.0911438 21.18063523 15.57877356 21.17480846 13.06640625 21.16796875 C11.87173233 21.16685593 10.67705841 21.1657431 9.44618225 21.16459656 C8.35091721 21.15821671 7.25565216 21.15183685 6.12719727 21.14526367 C5.15871353 21.14145187 4.1902298 21.13764008 3.19239807 21.13371277 C1 21 1 21 0 20 C0 13.4 0 6.8 0 0 Z " fill="#BEDEB2" transform="translate(372,135)"/>
</svg>
