<?xml version="1.0" encoding="UTF-8"?>
<svg version="1.1" xmlns="http://www.w3.org/2000/svg" width="587" height="170">
<rect x="115" y="0" width="472" height="170" fill="#4FA72F" />
<g fill="#FFFFFF">
<path d="M0 0 C14.4 -0.1 28.7 -0.2 43.5 -0.3 C48 -0.3 52.5 -0.3 57.2 -0.4 C62.8 -0.4 62.8 -0.4 65.4 -0.4 C67.2 -0.4 69 -0.4 70.8 -0.4 C73.5 -0.5 76.3 -0.5 79 -0.5 C79.8 -0.5 80.6 -0.5 81.4 -0.5 C88.5 -0.4 93.5 1.9 98.8 6.4 C103.3 11.6 104.4 15.2 104.1 22 C104.1 23.6 104.1 25.2 104 26.7 C104 29.2 103.9 31.7 103.8 34.1 C103.3 46.3 103.3 46.3 107.9 57.4 C110.1 62.5 109.7 68.2 109.5 73.7 C109.5 75.8 109.5 77.8 109.5 79.9 C109.4 88.1 108.7 94.1 103.3 100.6 C102.9 101.2 102.4 101.7 102 102.3 C96.1 107.4 90.2 108.6 82.6 108.5 C81.7 108.5 80.8 108.5 79.9 108.5 C77 108.5 74 108.4 71.1 108.4 C69.3 108.4 67.5 108.4 65.6 108.4 C58.9 108.4 52.2 108.3 45.5 108.3 C23 108.1 23 108.1 0 108 C0 72.4 0 36.7 0 0 Z" transform="translate(132,15)"/>
<path d="M0 0 C9.5 -0.1 19.1 -0.1 28.6 -0.2 C33.1 -0.2 37.5 -0.2 41.9 -0.2 C46.2 -0.3 50.5 -0.3 54.8 -0.3 C56.4 -0.3 58 -0.3 59.7 -0.3 C61.9 -0.3 64.2 -0.3 66.5 -0.3 C68.5 -0.4 68.5 -0.4 70.5 -0.4 C75.7 0.2 79.7 2.4 83.7 5.8 C84.5 6.4 84.5 6.4 85.4 7.1 C89.5 12 90.4 17.1 90.3 23.3 C90.3 24.4 90.3 24.4 90.3 25.4 C90.3 27.7 90.3 29.9 90.3 32.2 C90.3 33.8 90.3 35.4 90.3 37 C90.3 41.1 90.2 45.2 90.2 49.4 C90.2 53.6 90.2 57.9 90.1 62.1 C90.1 70.4 90.1 78.7 90 87 C80.4 87.1 70.7 87.2 61.1 87.3 C56.6 87.3 52.1 87.3 47.6 87.4 C43.3 87.4 39 87.5 34.7 87.5 C33 87.5 31.4 87.5 29.7 87.5 C14.2 87.8 14.2 87.8 8.4 83.4 C3.4 78.4 0.2 73.2 -0.2 66 C-0.2 64.5 -0.2 63 -0.2 61.4 C-0.2 60.7 -0.2 60 -0.2 59.2 C-0.2 56.5 -0.2 53.9 -0.1 51.2 C-0.1 45.2 0 39.2 0 33 C22.8 33 45.5 33 69 33 C69 28.7 69 24.4 69 20 C46.2 20 23.5 20 0 20 C0 13.4 0 6.8 0 0 Z" transform="translate(255,36)"/>
<path d="M0 0 C9.5 -0.1 19 -0.2 28.5 -0.2 C32.9 -0.2 37.4 -0.3 41.8 -0.3 C46 -0.3 50.3 -0.4 54.6 -0.4 C56.2 -0.4 57.8 -0.4 59.4 -0.4 C76.5 -0.6 76.5 -0.6 84 5.7 C84.5 6.3 84.9 6.8 85.4 7.4 C86.1 8.2 86.1 8.2 86.8 9 C89.8 13.8 90.2 18.5 90.2 24.1 C90.2 24.8 90.2 25.5 90.2 26.2 C90.2 28.4 90.2 30.7 90.2 32.9 C90.2 34.5 90.2 36 90.2 37.6 C90.2 41.7 90.2 45.8 90.1 49.9 C90.1 54 90.1 58.2 90.1 62.4 C90.1 70.6 90 78.8 90 87 C80.5 87.1 70.9 87.1 61.4 87.2 C56.9 87.2 52.5 87.2 48.1 87.2 C43.8 87.3 39.5 87.3 35.2 87.3 C33.6 87.3 32 87.3 30.3 87.3 C28.1 87.3 25.8 87.3 23.5 87.3 C21.5 87.4 21.5 87.4 19.5 87.4 C13.8 86.8 9.9 84.5 6.2 80.1 C5.6 79.5 5 78.8 4.4 78.1 C2.8 75.7 2.4 73.8 2 71 C1.3 71 0.7 71 0 71 C0 58.5 0 45.9 0 33 C22.8 33 45.5 33 69 33 C69 28.7 69 24.4 69 20 C46.2 20 23.5 20 0 20 C0 13.4 0 6.8 0 0 Z" transform="translate(458,36)"/>
<path d="M0 0 C6.6 0 13.2 0 20 0 C20 22.1 20 44.2 20 67 C36.2 67 52.3 67 69 67 C69 44.9 69 22.8 69 0 C75.6 0 82.2 0 89 0 C89 13.2 89.1 26.4 89.1 39.6 C89.1 45.7 89.1 51.8 89.2 58 C89.2 63.9 89.2 69.8 89.2 75.7 C89.2 78 89.2 80.2 89.2 82.5 C89.2 85.6 89.2 88.8 89.2 92 C89.2 92.9 89.2 93.8 89.2 94.8 C89.2 103.7 86.7 109.2 81.3 116.3 C74.8 121.3 65.7 120.3 58 120.2 C56.8 120.2 55.5 120.2 54.3 120.2 C51.7 120.2 49.1 120.2 46.5 120.2 C42.6 120.2 38.6 120.2 34.6 120.2 C32.1 120.2 29.6 120.2 27.1 120.2 C25.9 120.2 24.7 120.2 23.4 120.2 C22.4 120.2 21.3 120.2 20.1 120.1 C18.7 120.1 18.7 120.1 17.2 120.1 C15 120 15 120 14 119 C14 112.4 14 105.8 14 99 C32.2 99 50.3 99 69 99 C69 95 69 91.1 69 87 C66.6 87 66.6 87 64.2 87.1 C58.2 87.1 52.3 87.2 46.3 87.2 C43.7 87.2 41.2 87.3 38.6 87.3 C34.9 87.4 31.2 87.4 27.5 87.4 C25.8 87.4 25.8 87.4 24 87.5 C17.4 87.5 13.3 87 8 83 C6.1 81 6.1 81 4.7 79 C4.2 78.3 3.7 77.7 3.3 77 C0.4 72.4 -0.2 69.5 -0.2 64 C-0.2 63.3 -0.2 62.6 -0.2 61.9 C-0.2 59.6 -0.2 57.4 -0.2 55.1 C-0.2 53.5 -0.2 51.9 -0.2 50.3 C-0.2 46.2 -0.2 42 -0.1 37.8 C-0.1 33.6 -0.1 29.3 -0.1 25 C-0.1 16.7 0 8.3 0 0 Z" transform="translate(358,36)"/>
</g>
<g fill="#53A934">
<path d="M0 0 C1.7 0 3.3 0 5 0 C6.3 3 7.6 5.9 9 9 C10.3 9 11.6 9 12.9 9 C17.6 9.1 22.4 9.1 27.2 9.2 C29.3 9.2 31.3 9.3 33.4 9.3 C58.3 9.5 58.3 9.5 66 15.6 C73.5 23.3 75.5 32.9 75.5 43.3 C75.5 44.5 75.5 45.7 75.5 46.9 C75.5 48.6 75.5 48.6 75.5 50.4 C75.5 65.6 70.2 80.3 59.8 91.6 C58 93 58 93 54.3 93.6 C51.5 93.1 49.4 92.6 47 91 C46.6 86.5 46.6 86.5 48.5 84.2 C49.1 83.7 49.8 83.1 50.5 82.5 C58.3 75.2 64.1 65.6 65.4 54.9 C65.6 48.5 65.6 48.5 62.8 42.9 C60.2 41.2 58 39.9 55 39 C55 38.3 55 37.7 55 37 C42.5 37.3 29.9 37.7 17 38 C12.6 51.1 11.9 56.9 15.9 69.3 C16.1 70.1 16.4 71 16.7 71.9 C17.7 75.2 18.8 78.5 20.2 81.8 C23.6 91 20.2 102.2 17 111 C14.7 115.6 12.1 118.9 7.4 121 C2.1 122.6 -3.6 122.8 -9 122 C-10.8 120.9 -10.8 120.9 -12 119 C-12.9 111.6 -12.8 104.5 -9 98 C-7 96 -7 96 -5.1 95.8 C-4 95.8 -4 95.8 -2.9 95.8 C-2.1 95.8 -1.3 95.8 -0.4 95.8 C0.8 95.8 0.8 95.8 2.1 95.9 C3 95.9 3.8 95.9 4.7 95.9 C6.8 95.9 8.9 96 11 96 C9.5 89.3 7.9 82.8 5.8 76.3 C2.7 65.5 2.4 54.4 6.4 43.9 C8 39.7 8 39.7 7 35.6 C5.4 33.6 3.8 31.8 2 30 C-1 23.9 -1.2 17.5 -1.1 10.8 C-1.1 10.1 -1.1 9.4 -1.1 8.7 C-1.1 5.5 -1 3 0 0 Z" transform="translate(31,28)"/>
<path d="M0 0 C8.7 0 17.4 0 26.2 -0.1 C30.2 -0.1 34.3 -0.1 38.3 -0.1 C42.2 -0.1 46.1 -0.1 50 -0.1 C51.5 -0.1 53 -0.1 54.5 -0.1 C56.6 -0.1 58.7 -0.1 60.7 -0.1 C61.9 -0.1 63.1 -0.1 64.3 -0.1 C67 0 67 0 68 1 C68.1 2.7 68.1 4.4 68.1 6.1 C68.1 7.1 68.1 8.2 68.1 9.2 C68.1 10.3 68.1 11.4 68.1 12.5 C68.1 13.6 68.1 14.7 68.1 15.8 C68.1 16.8 68.1 17.8 68.1 18.9 C68.1 19.9 68.1 20.8 68.1 21.8 C68 24 68 24 67 25 C64.9 25.1 62.9 25.1 60.8 25.1 C59.5 25.1 58.2 25.1 56.8 25.1 C55.4 25.1 53.9 25.1 52.5 25.1 C51 25.1 49.5 25.1 48.1 25.1 C45 25.1 41.9 25.1 38.8 25.1 C34.8 25.1 30.8 25.1 26.8 25.1 C23.8 25.1 20.7 25.1 17.7 25.1 C16.2 25.1 14.8 25.1 13.3 25.1 C11.3 25.1 9.2 25.1 7.2 25.1 C5.4 25.1 5.4 25.1 3.6 25.1 C1 25 1 25 0 24 C-0.1 22.2 -0.1 20.4 -0.1 18.7 C-0.1 17.6 -0.1 16.5 -0.1 15.4 C-0.1 14.2 -0.1 13.1 -0.1 11.9 C-0.1 10.8 -0.1 9.7 0 8.5 C0 5.7 0 2.8 0 0 Z" transform="translate(152,78)"/>
<path d="M0 0 C20.8 0 41.6 0 63 0 C63 7.3 63 14.5 63 22 C61.2 23.8 58.7 23.1 56.3 23.1 C55.1 23.1 53.9 23.1 52.6 23.1 C51.3 23.1 49.9 23.1 48.6 23.1 C47.2 23.1 45.9 23.1 44.5 23.1 C41.6 23.1 38.8 23.1 35.9 23.1 C32.2 23.1 28.6 23.1 24.9 23.1 C22.1 23.1 19.3 23.1 16.4 23.1 C15.1 23.1 13.7 23.1 12.4 23.1 C10.5 23.1 8.6 23.1 6.7 23.1 C5.1 23.1 5.1 23.1 3.4 23.1 C1 23 1 23 0 22 C0 14.7 0 7.5 0 0 Z" transform="translate(152,35)"/>
<path d="M0 0 C7 0 13.9 0 20.9 -0.1 C23.2 -0.1 25.6 -0.1 28 -0.1 C31.4 -0.1 34.8 -0.1 38.2 -0.1 C39.3 -0.1 40.3 -0.1 41.4 -0.1 C42.9 -0.1 42.9 -0.1 44.4 -0.1 C45.3 -0.1 46.1 -0.1 47 -0.1 C49 0 49 0 50 1 C50.1 3.5 50.1 6 50.1 8.6 C50.1 9.3 50.1 10 50 10.7 C50 12.5 50 14.2 50 16 C43 16 36.1 16 29.1 16.1 C26.8 16.1 24.4 16.1 22 16.1 C18.6 16.1 15.2 16.1 11.8 16.1 C10.7 16.1 9.7 16.1 8.6 16.1 C7.6 16.1 6.6 16.1 5.6 16.1 C4.7 16.1 3.9 16.1 3 16.1 C1 16 1 16 0 15 C-0.1 12.5 -0.1 10 -0.1 7.4 C-0.1 6.7 -0.1 6 -0.1 5.3 C-0.1 3.5 0 1.8 0 0 Z" transform="translate(478,87)"/>
<path d="M0 0 C15.8 0 31.7 0 48 0 C48 5 48 9.9 48 15 C32.2 15 16.3 15 0 15 C0 10.1 0 5.1 0 0 Z" transform="translate(276,88)"/>
</g>
</svg>
