<svg xmlns="http://www.w3.org/2000/svg" version="1.1" xmlns:xlink="http://www.w3.org/1999/xlink" xmlns:svgjs="http://svgjs.dev/svgjs" viewBox="0 0 800 800"><g stroke-width="1" stroke="hsl(265, 55%, 20%)" fill="none" stroke-linecap="round"><path d="M389.87 26.63C396.22 28.26 402.46 29.91 408.59 31.56 414.72 33.01 420.72 34.4 426.61 35.72 435.37 37.26 452.27 39.43 460.4 40.11 468.39 40.4 483.76 40.68 491.15 40.85 498.43 41.07 512.51 42.45 519.34 43.79 526.14 45.62 539.56 51.19 546.23 54.98 550.75 57.85 555.28 61.07 559.82 64.63 564.48 68.4 569.18 72.49 573.94 76.88 578.84 81.45 583.83 86.28 588.91 91.35 594.16 96.54 599.54 101.93 605.04 107.47 610.74 113.08 616.58 118.81 622.57 124.63 628.76 130.45 635.11 136.31 641.6 142.21 648.29 148.05 655.11 153.89 662.06 159.71 669.17 165.43 676.37 171.11 683.66 176.75 691.03 182.27 698.43 187.73 705.83 193.14 713.24 198.41 720.58 203.62 727.8 208.8 734.93 213.83 741.86 218.83 748.55 223.8 755.03 228.64 761.18 233.47 766.95 238.29 772.39 243.01 777.38 247.74 781.86 252.49 787.65 259.5 795.52 273.67 797.47 280.87 798.01 288.08 795.14 302.9 791.85 310.56 789.12 315.67 785.9 320.91 782.23 326.27 778.39 331.61 774.23 337.08 769.83 342.69 765.45 348.28 760.98 354.02 756.49 359.89 752.25 365.76 748.13 371.78 744.23 377.94 740.77 384.1 737.65 390.42 734.92 396.89 732.81 403.36 731.18 409.92 730.06 416.56 729.6 423.21 729.64 429.95 730.16 436.77 731.3 443.61 732.86 450.53 734.8 457.54 737.23 464.57 739.94 471.69 742.85 478.89 746.09 486.11 749.42 493.42 752.75 500.8 756.22 508.2 759.56 515.68 762.72 523.21 765.82 530.75 768.61 538.35 771.05 545.98 773.26 553.6 775.03 561.23 776.3 568.85 777.24 576.43 777.63 583.98 777.46 591.46 776.88 598.85 775.72 606.13 773.98 613.28 771.83 620.27 769.1 627.08 765.84 633.66 762.17 640.03 758 646.11 753.36 651.86 748.39 657.34 742.99 662.44 737.23 667.11 731.21 671.46 724.87 675.35 718.27 678.74 711.5 681.77 704.53 684.29 697.39 686.28 690.16 687.92 682.83 689.04 675.43 689.65 668.02 689.98 660.57 689.85 653.14 689.3 645.74 688.58 638.38 687.54 631.07 686.24 623.85 684.95 616.7 683.54 609.64 682.08 602.68 680.86 595.81 679.77 589.05 678.88 582.39 678.47 575.84 678.44 569.38 678.86 563.03 679.97 556.77 681.66 550.58 684 544.5 687.14 538.49 691 532.54 695.58 526.67 700.97 520.85 707.05 515.07 713.78 509.35 721.17 503.66 729.06 497.98 737.37 492.35 746.04 486.72 754.88 481.08 763.76 475.47 772.58 469.85 781.13 464.19 789.25 458.56 796.86 452.89 803.75 447.18 809.74 441.49 814.85 435.74 818.84 429.94 821.61 424.15 823.25 418.3 823.57 412.4 822.56 406.49 820.41 400.53 816.99 394.51 812.38 388.48 806.89 382.4 800.44 376.27 793.2 370.13 785.55 364.01 777.57 357.92 769.46 351.83 761.53 345.76 753.86 339.73 746.61 333.7 740.05 327.71 734.2 321.76 729.17 315.82 725.14 309.93 722.07 304.1 719.97 295.4 718.94 278.34 722.75 270 727.09 264.5 730.84 259.07 734.93 253.73 739.22 248.41 743.77 243.19 748.24 238.06 752.49 230.45 758.44 215.77 766.94 208.71 768.99 201.78 769.21 188.46 764.14 182.07 758.91 177.84 754.45 173.71 749.24 169.68 743.34 165.64 736.89 161.69 729.87 157.83 722.37 153.94 714.5 150.14 706.28 146.42 697.81 142.66 689.15 138.97 680.37 135.36 671.53 131.7 662.68 128.1 653.88 124.56 645.18 120.97 636.61 117.43 628.21 113.96 620.01 110.41 612.02 106.93 604.27 103.5 596.77 100.01 589.52 96.58 582.54 93.21 575.8 89.78 569.32 86.42 563.07 83.13 557.04 79.79 551.25 76.52 545.63 73.35 540.18 68.58 532.37 59.51 517.48 55.26 510.28 51.12 503.26 43.54 489.22 40.14 482.12 36.93 474.99 31.37 460.25 29.05 452.59 26.95 444.8 23.71 428.5 22.56 419.98 21.9 414.24 21.41 408.36 21.11 402.32 20.85 396.28 20.77 390.1 20.87 383.77 21.01 377.44 21.33 371.05 21.84 364.6 22.37 358.16 23.07 351.67 23.96 345.14 24.86 338.63 25.94 332.09 27.18 325.53 28.43 319 29.86 312.46 31.43 305.92 33.02 299.42 34.75 292.93 36.63 286.48 38.51 280.07 40.52 273.71 42.67 267.4 44.79 261.16 47.04 254.99 49.4 248.91 51.73 242.9 54.17 236.99 56.71 231.21 59.2 225.51 61.78 219.95 64.45 214.54 68.42 206.65 76.65 191.9 80.91 185.07 85.16 178.59 93.94 166.79 98.48 161.46 103.05 156.43 112.57 147.31 117.56 143.16 122.63 139.13 133.32 131.45 138.96 127.71 144.76 123.8 157.02 115.67 163.5 111.36 170.17 106.66 184.22 96.5 191.6 91.02 196.61 87.14 201.73 83.18 206.98 79.16 212.27 74.99 217.67 70.79 223.17 66.6 228.72 62.32 234.37 58.1 240.1 53.97 245.88 49.85 251.74 45.87 257.68 42.09 263.66 38.41 269.7 34.98 275.8 31.83 281.94 28.88 288.12 26.25 294.36 23.99 300.61 21.97 306.91 20.33 313.23 19.1 319.58 18.12 325.94 17.53 332.33 17.34 338.72 17.37 345.13 17.76 351.53 18.49 357.94 19.36 364.35 20.51 370.74 21.9 377.14 23.32 383.51 24.91 389.86 26.63" stroke-dasharray="14 3" transform="rotate(0, 400, 400)" opacity="1.00"></path><path d="M384.84 39.85C390.9 41.51 396.86 43.2 402.72 44.88 411.46 47.09 428.41 50.77 436.62 52.17 444.73 53.08 460.4 54.13 467.98 54.38 475.48 54.4 490.03 54.6 497.12 54.96 504.19 55.55 518.1 58.05 525 60.09 531.98 62.71 546.07 69.91 553.24 74.5 558.16 77.89 563.12 81.6 568.16 85.6 578.65 94.2 589.53 103.82 600.86 114.28 612.85 125.12 625.36 136.47 638.36 148.14 651.93 159.75 665.85 171.41 679.97 183.03 694.25 194.28 708.35 205.37 721.96 216.28 728.58 221.56 734.97 226.81 741.09 232.01 746.98 237.11 752.53 242.17 757.68 247.22 762.51 252.17 766.88 257.11 770.75 262.06 775.68 269.35 782.03 283.96 783.36 291.32 783.41 298.65 779.95 313.62 776.57 321.29 773.85 326.4 770.7 331.61 767.16 336.94 763.48 342.23 759.52 347.65 755.36 353.19 751.24 358.71 747.04 364.37 742.83 370.15 738.86 375.93 735.02 381.84 731.36 387.9 728.13 393.95 725.19 400.15 722.61 406.5 720.59 412.86 719.01 419.29 717.89 425.8 717.37 432.31 717.31 438.9 717.68 445.57 718.62 452.25 719.95 459.01 721.62 465.84 723.76 472.67 726.16 479.58 728.77 486.55 731.69 493.53 734.71 500.57 737.76 507.66 740.96 514.74 744.08 521.87 747.05 529.02 750 536.15 752.7 543.29 755.09 550.42 757.32 557.51 759.16 564.56 760.58 571.56 761.72 578.48 762.37 585.31 762.52 592.03 762.33 598.62 761.6 605.06 760.35 611.31 758.72 617.39 756.57 623.24 753.9 628.81 750.87 634.17 747.35 639.21 743.38 643.91 734.46 652.51 723.98 659.49 712.25 664.68 699.74 668.69 686.41 670.89 672.54 671.36 658.46 671.11 644.18 669.66 629.92 667.4 615.82 665.64 601.92 664.11 588.3 663.44 581.61 663.85 575 664.67 568.48 665.98 562.04 667.96 555.68 670.51 549.39 673.68 543.2 677.58 537.07 682.13 531 687.32 525.01 693.21 519.07 699.69 513.18 706.7 507.35 714.24 501.55 722.17 495.79 730.38 490.07 738.84 484.37 747.36 478.69 755.81 473.03 764.13 467.38 772.11 461.72 779.61 456.09 786.59 450.44 792.82 444.77 798.19 439.12 802.69 433.44 806.13 427.73 808.43 422.03 809.68 416.3 809.7 410.53 808.5 404.77 806.26 398.97 802.85 393.13 798.36 387.29 793.06 381.41 786.89 375.5 779.98 369.58 772.7 363.7 765.1 357.86 757.37 352.02 749.78 346.22 742.4 340.47 735.38 334.72 728.96 329.01 723.16 323.36 718.08 317.72 713.91 312.13 710.58 306.6 708.13 298.36 706.41 282.24 708.49 274.38 711.89 269.18 715.02 264.06 718.54 259.03 722.31 254.01 726.43 249.09 730.55 244.26 734.57 237.08 740.41 223.22 749.55 216.55 752.34 209.98 753.61 197.33 751.29 191.24 747.65 183.15 740.36 175.4 730.26 167.99 717.84 160.45 703.73 153.18 688.2 146.19 671.82 138.98 655.01 131.99 638.15 125.23 621.61 118.21 605.56 111.39 590.22 104.82 575.69 101.44 568.73 98.12 561.97 94.87 555.42 91.58 549.07 88.36 542.9 85.23 536.9 82.05 531.08 78.98 525.41 76 519.86 73 514.46 70.1 509.15 67.33 503.92 63.23 496.26 55.7 481.22 52.31 473.73 49.1 466.3 43.55 451.21 41.22 443.49 39.12 435.71 35.88 419.65 34.74 411.35 33.86 402.94 33.07 385.52 33.19 376.53 33.36 370.49 33.72 364.42 34.26 358.32 34.84 352.22 35.59 346.1 36.51 339.96 37.46 333.84 38.58 327.71 39.86 321.58 41.15 315.48 42.61 309.39 44.21 303.33 45.82 297.3 47.57 291.3 49.46 285.36 51.35 279.46 53.36 273.62 55.5 267.87 57.61 262.16 59.84 256.55 62.18 251.04 65.68 242.93 73.09 227.46 76.97 220.14 80.85 213.11 88.87 200.01 93.01 193.97 95.73 190.07 98.52 186.36 101.38 182.83 106.93 175.94 112.78 169.7 118.93 164.09 124.95 158.46 131.33 153.24 138.1 148.32 144.84 143.02 152.03 137.74 159.68 132.37 167.4 126.27 175.62 119.88 184.31 113.14 188.71 109.46 193.23 105.7 197.86 101.85 202.54 97.83 207.33 93.75 212.23 89.63 217.18 85.38 222.23 81.14 227.38 76.92 232.58 72.65 237.87 68.45 243.25 64.37 248.66 60.33 254.16 56.46 259.74 52.79 265.35 49.25 271.04 45.96 276.78 42.98 282.56 40.19 288.39 37.73 294.27 35.64 300.17 33.79 306.11 32.32 312.09 31.24 318.09 30.42 324.12 29.97 330.16 29.91 336.22 30.06 342.29 30.55 348.37 31.36 354.46 32.32 360.54 33.53 366.62 34.98 372.71 36.46 378.78 38.09 384.84 39.85" stroke-dasharray="1 3" transform="rotate(3.2857142857142856, 400, 400)" opacity="0.97"></path><path d="M380.69 53.06C386.47 54.76 392.17 56.48 397.79 58.19 406.17 60.46 422.5 64.26 430.46 65.73 435.73 66.42 440.92 67.01 446.03 67.51 456.26 67.84 466.18 68.03 475.83 68.25 485.56 68.14 495.09 68.53 504.47 69.63 514.06 71.08 523.62 73.62 533.22 77.33 543.18 81.82 553.34 87.61 563.75 94.61 574.65 102.42 585.94 111.3 597.62 121.08 609.85 131.36 622.5 142.26 635.51 153.6 648.91 165.02 662.51 176.64 676.12 188.31 689.73 199.76 702.99 211.13 715.61 222.37 727.59 233.24 738.44 243.98 747.84 254.6 755.96 264.85 762.19 275.07 766.32 285.31 768.82 295.25 769.11 305.32 767.19 315.58 763.89 325.64 758.78 336 752.13 346.69 748.62 352 744.87 357.4 740.95 362.91 737.08 368.4 733.15 374.01 729.22 379.72 725.52 385.43 721.93 391.26 718.52 397.22 715.49 403.17 712.74 409.25 710.3 415.47 708.38 421.68 706.85 427.96 705.73 434.3 705.16 440.64 705 447.05 705.23 453.51 705.99 459.97 707.1 466.49 708.53 473.05 710.39 479.62 712.5 486.23 714.81 492.88 720.32 506.15 726.02 519.51 731.48 532.83 737.02 546.01 741.54 559.01 744.75 571.64 747.06 583.9 747.59 595.55 746.25 606.37 743.58 616.51 738.99 625.53 732.6 633.21 724.99 639.95 715.83 645.18 705.37 648.78 694.1 651.49 681.9 652.7 669.04 652.57 655.85 652.11 642.31 650.89 628.64 649.32 615 648.56 601.42 648.38 588 649.31 574.82 652.33 561.86 657.26 549.17 664.38 536.76 674.14 524.58 686.08 512.61 699.93 500.88 715.41 489.29 731.62 477.82 747.68 466.49 762.93 455.21 776.17 443.93 786.42 435.52 791.81 418.65 795.9 410.19 794.4 404.55 792.09 398.89 788.72 393.22 784.34 387.54 779.24 381.85 773.35 376.14 766.77 370.43 759.85 364.77 752.62 359.15 745.25 353.54 738.01 347.99 730.92 342.49 724.13 336.99 717.87 331.54 712.15 326.16 707.06 320.79 702.77 315.47 699.24 310.23 696.49 299.75 693.77 289.56 694.11 279.69 697.08 269.85 702.71 260.35 709.58 251.21 716.82 242.08 724.37 233.32 730.68 224.93 735.08 216.53 737.83 208.47 737.83 200.78 734.97 192.99 729.82 185.52 721.93 178.35 711.69 171.02 699.68 163.93 686.01 157.09 671.18 150.02 655.62 143.15 639.64 136.48 623.61 129.56 607.73 122.83 592.26 116.33 577.35 109.6 563.02 103.14 549.37 96.98 536.37 90.68 524 84.76 512.16 79.27 500.76 73.78 489.81 68.79 479.11 64.37 468.52 60.05 458.19 56.35 447.81 53.33 437.3 51.25 429.44 48.03 413.46 46.92 405.3 46.06 397.08 45.34 380.24 45.5 371.62 45.9 362.96 47.68 345.64 49.04 337.01 50.6 328.4 54.55 311.34 56.92 302.92 60.18 291.82 63.97 280.96 68.25 270.47 72.43 260.14 77.04 250.26 82 240.9 86.77 231.77 91.85 223.22 97.21 215.33 102.32 207.65 107.69 200.61 113.3 194.22 118.68 187.92 124.33 182.16 130.26 176.88 136.03 171.44 142.13 166.27 148.57 161.25 154.96 155.76 161.76 150.18 168.96 144.44 176.2 137.95 183.9 131.15 192.04 124.01 200.29 116.13 208.99 108 218.12 99.74 227.37 91.1 237.05 82.65 247.08 74.63 257.24 66.85 267.73 59.93 278.49 54.12 289.35 49.13 300.45 45.53 311.71 43.45 320.21 42.62 337.37 43.09 346 44.28 351.77 45.31 357.55 46.58 363.33 48.08 369.12 49.6 374.9 51.28 380.68 53.06" stroke-dasharray="12 7" transform="rotate(6.571428571428571, 400, 400)" opacity="0.93"></path><path d="M377.65 66.28C388.69 69.61 399.49 72.91 410.02 75.98 420.55 78.12 430.83 79.86 440.85 81.2 450.9 81.63 460.75 81.87 470.4 82.09 480.16 81.9 489.82 82.11 499.41 82.91 509.21 83.95 519.05 85.96 529 89.05 539.28 92.82 549.79 97.82 560.55 104 571.74 110.96 583.27 119.02 595.14 128.03 607.43 137.61 620.03 147.91 632.84 158.75 645.91 169.82 659.02 181.2 671.98 192.74 684.79 204.2 697.11 215.68 708.67 227.1 719.53 238.26 729.21 249.33 737.42 260.29 744.41 270.94 749.59 281.54 752.81 292.11 754.55 302.42 754.28 312.8 752.02 323.28 748.58 333.58 743.54 344.09 737.15 354.84 730.46 365.49 723.15 376.46 715.65 387.79 709.04 399.08 703.03 410.77 697.99 422.89 694.81 435.01 693.09 447.28 692.82 459.66 694.46 472.05 697.27 484.53 700.97 497.02 705.89 509.45 711.03 521.81 716.04 533.98 721.23 545.96 725.59 557.59 728.84 568.7 731.39 579.41 732.39 589.37 731.72 598.41 729.91 606.82 726.33 614.08 721.07 620.04 714.68 625.24 706.79 629.08 697.6 631.52 687.57 633.37 676.56 634.05 664.79 633.76 652.59 633.52 639.93 632.89 626.99 632.28 613.98 632.74 600.9 634.02 587.86 636.56 574.96 641.17 562.2 647.6 549.63 656.05 537.27 666.78 525.1 679.35 513.14 693.4 501.37 708.64 489.76 724.21 478.3 739.31 466.97 753.4 455.72 765.39 444.55 774.43 433.45 780.4 422.37 782.43 411.31 780.28 400.27 774.75 389.21 765.62 378.16 753.55 367.1 740.23 356.29 726.3 345.75 712.88 335.2 701.27 324.92 691.82 314.93 685.03 304.94 681.54 295.26 680.87 285.9 682.68 276.54 687.1 267.52 692.9 258.84 699.31 250.15 706.35 241.8 712.58 233.8 717.37 225.74 720.95 218.01 722.21 210.59 720.97 203.07 717.72 195.81 711.92 188.83 703.8 181.66 693.94 174.72 682.27 167.99 669.22 161.02 655.22 154.24 640.48 147.65 625.39 140.81 610.14 134.16 594.98 127.72 580.14 121.07 565.63 114.68 551.61 108.58 538.13 102.36 525.13 96.51 512.63 91.08 500.6 85.65 488.96 80.71 477.64 76.33 466.58 72.06 455.75 68.4 445.02 65.4 434.32 62.59 423.73 60.47 413.06 59.08 402.29 57.91 391.53 57.48 380.62 57.81 369.55 58.33 358.48 59.59 347.52 61.53 336.71 63.59 325.93 66.28 315.34 69.55 305.02 72.84 294.78 76.65 284.87 80.91 275.36 85.08 265.97 89.65 257.06 94.55 248.67 99.26 240.44 104.27 232.77 109.53 225.69 114.55 218.73 119.81 212.31 125.28 206.44 130.52 200.53 136.01 195.03 141.74 189.87 147.3 184.43 153.15 179.14 159.32 173.89 165.39 168.09 171.83 162.14 178.64 155.97 185.45 149.07 192.68 141.86 200.31 134.36 208.01 126.21 216.14 117.89 224.67 109.52 233.29 100.91 242.31 92.58 251.69 84.76 261.17 77.28 270.98 70.72 281.07 65.29 291.23 60.69 301.65 57.47 312.26 55.72 322.92 54.9 333.73 55.44 344.65 57.24 355.59 59.51 366.6 62.61 377.64 66.28" stroke-dasharray="3 3" transform="rotate(9.857142857142856, 400, 400)" opacity="0.90"></path><path d="M375.9 79.5C386.47 82.87 396.87 86.21 407.07 89.34 417.29 91.58 427.33 93.43 437.2 94.88 447.11 95.42 456.9 95.75 466.58 95.99 476.37 95.77 486.14 95.85 495.91 96.41 505.88 97.11 515.95 98.65 526.16 101.15 536.67 104.25 547.4 108.47 558.38 113.83 569.71 119.92 581.32 127.11 593.18 135.27 605.36 144.05 617.72 153.61 630.18 163.81 642.75 174.35 655.22 185.3 667.4 196.52 679.31 207.8 690.63 219.19 701.1 230.61 710.83 241.88 719.35 253.11 726.44 264.27 732.35 275.21 736.58 286.09 738.96 296.93 740.05 307.54 739.3 318.18 736.78 328.86 733.26 339.38 728.33 350.03 722.23 360.83 715.93 371.55 709.11 382.49 702.13 393.67 696 404.83 690.41 416.28 685.68 428.03 682.64 439.77 680.89 451.55 680.44 463.32 681.73 475.07 684.08 486.77 687.26 498.35 691.6 509.84 696.2 521.12 700.73 532.05 705.55 542.77 709.69 553 712.9 562.6 715.6 571.81 716.94 580.2 716.82 587.62 715.74 594.5 713.05 600.28 708.82 604.87 703.56 608.89 696.86 611.74 688.89 613.47 680.1 614.88 670.29 615.47 659.65 615.43 648.53 615.74 636.84 615.99 624.77 616.56 612.52 618.36 600.09 621.13 587.6 625.23 575.14 631.29 562.74 639.05 550.45 648.58 538.3 660.04 526.29 672.97 514.46 687 502.78 701.81 491.25 716.63 479.88 730.7 468.62 743.6 457.47 754.35 446.44 762.24 435.47 767.25 424.56 768.6 413.73 766.12 402.92 760.61 392.15 751.81 381.43 740.33 370.72 727.71 360.28 714.48 350.15 701.62 340 690.31 330.15 680.86 320.61 673.73 311.05 669.57 301.81 667.97 292.89 668.7 283.95 671.95 275.33 676.64 267.05 682.14 258.73 688.51 250.72 694.44 243.03 699.35 235.27 703.47 227.79 705.68 220.6 705.77 213.27 704.17 206.19 700.25 199.34 694.13 192.31 686.36 185.47 676.73 178.82 665.59 171.94 653.37 165.23 640.17 158.69 626.34 151.92 612.12 145.33 597.71 138.95 583.35 132.38 569.09 126.05 555.11 120.02 541.52 113.88 528.24 108.11 515.39 102.74 502.97 97.39 490.87 92.52 479.12 88.19 467.68 83.98 456.46 80.38 445.44 77.42 434.57 74.66 423.82 72.59 413.12 71.25 402.45 70.13 391.82 69.74 381.17 70.12 370.51 70.7 359.85 72.01 349.42 73.99 339.25 76.1 329.09 78.82 319.23 82.11 309.7 85.42 300.23 89.23 291.13 93.47 282.48 97.63 273.9 102.16 265.8 107.01 258.21 111.68 250.7 116.63 243.7 121.81 237.22 126.75 230.75 131.92 224.74 137.29 219.16 142.41 213.43 147.76 207.99 153.34 202.76 158.72 197.17 164.36 191.63 170.29 186.03 176.09 179.85 182.23 173.48 188.69 166.85 195.12 159.56 201.93 151.98 209.11 144.16 216.32 135.81 223.92 127.37 231.9 118.99 239.94 110.48 248.36 102.35 257.13 94.81 265.97 87.69 275.14 81.52 284.59 76.5 294.11 72.32 303.88 69.48 313.87 68.07 323.9 67.53 334.11 68.29 344.46 70.25 354.83 72.63 365.32 75.79 375.89 79.5" stroke-dasharray="1 10" transform="rotate(13.142857142857142, 400, 400)" opacity="0.86"></path><path d="M375.54 92.71C385.68 96.12 395.71 99.5 405.62 102.67 415.55 105.01 425.38 106.97 435.12 108.53 444.9 109.21 454.63 109.64 464.33 109.94 474.14 109.74 483.98 109.74 493.87 110.12 503.95 110.54 514.17 111.68 524.53 113.66 535.15 116.12 545.98 119.62 557.01 124.17 568.32 129.4 579.84 135.69 591.53 142.96 603.42 150.84 615.39 159.57 627.32 169 639.25 178.83 650.96 189.18 662.26 199.9 673.22 210.79 683.49 221.89 692.85 233.1 701.46 244.29 708.87 255.5 714.88 266.69 719.82 277.74 723.16 288.75 724.82 299.72 725.33 310.53 724.2 321.33 721.48 332.12 717.94 342.79 713.16 353.52 707.37 364.32 701.47 375.06 695.13 385.92 688.66 396.92 682.99 407.9 677.8 419.05 673.37 430.37 670.47 441.69 668.71 452.91 668.09 463.98 669.06 475.04 670.99 485.91 673.67 496.51 677.45 507.03 681.52 517.18 685.58 526.88 689.99 536.37 693.86 545.28 696.97 553.47 700.51 564.82 700.18 582.35 695.89 588.26 691.66 591.49 686.06 593.78 679.25 595.21 671.66 596.6 663.03 597.46 653.53 598.02 643.53 599.14 632.89 600.48 621.77 602.35 610.4 605.52 598.75 609.76 586.94 615.3 575.08 622.63 563.18 631.48 551.32 641.85 539.53 653.79 527.82 666.85 516.25 680.64 504.78 694.87 493.44 708.81 482.25 721.79 471.15 733.49 460.17 743.04 449.32 749.84 438.53 753.96 427.84 754.7 417.24 751.94 406.68 746.46 396.19 738.01 385.78 727.12 375.38 715.18 365.29 702.63 355.52 690.33 345.74 679.37 336.27 669.97 327.11 662.59 317.93 657.85 309.07 655.42 300.52 655.14 291.93 657.26 283.66 660.84 275.7 665.36 267.68 670.95 259.95 676.4 252.51 681.19 244.97 685.56 237.7 688.43 230.68 689.54 223.51 689.31 216.55 687.01 209.81 682.71 202.87 676.9 196.1 669.26 189.52 660.06 182.7 649.74 176.04 638.26 169.55 625.95 162.85 613.07 156.31 599.75 149.99 586.25 143.49 572.64 137.24 559.11 131.28 545.79 125.24 532.61 119.54 519.74 114.26 507.23 109 494.94 104.21 482.98 99.96 471.35 95.83 459.9 92.3 448.7 89.41 437.75 86.72 426.89 84.7 416.19 83.41 405.64 82.35 395.13 82.01 384.72 82.43 374.41 83.07 364.1 84.41 354.13 86.42 344.51 88.56 334.9 91.31 325.64 94.59 316.79 97.92 307.95 101.71 299.53 105.93 291.57 110.07 283.63 114.57 276.15 119.37 269.15 124.01 262.16 128.9 255.62 134.01 249.52 138.9 243.33 143.99 237.51 149.27 232.01 154.31 226.27 159.56 220.72 165 215.27 170.24 209.41 175.72 203.5 181.44 197.49 187.02 190.89 192.89 184.08 199.07 177.03 205.17 169.37 211.62 161.48 218.4 153.43 225.17 144.96 232.31 136.49 239.8 128.18 247.32 119.86 255.2 112 263.41 104.81 271.67 98.09 280.25 92.36 289.12 87.77 298.02 84.02 307.21 81.58 316.62 80.49 326.06 80.23 335.72 81.2 345.55 83.3 355.39 85.78 365.39 88.99 375.53 92.71" stroke-dasharray="7 8" transform="rotate(16.42857142857143, 400, 400)" opacity="0.83"></path><path d="M376.59 105.93C386.33 109.35 396.03 112.75 405.67 115.97 415.33 118.39 424.96 120.46 434.56 122.15 444.21 122.97 453.87 123.53 463.54 123.93 473.32 123.78 483.18 123.76 493.12 124.02 503.23 124.23 513.48 125.03 523.87 126.56 534.47 128.46 545.25 131.29 556.19 135.07 567.32 139.47 578.59 144.86 589.94 151.21 601.38 158.16 612.81 165.97 624.09 174.52 635.27 183.53 646.12 193.13 656.48 203.18 666.42 213.48 675.63 224.09 683.9 234.9 691.42 245.78 697.78 256.76 702.79 267.78 706.82 278.75 709.38 289.71 710.4 300.64 710.43 311.49 708.99 322.3 706.15 333.08 702.64 343.79 698.05 354.49 692.58 365.2 687.08 375.87 681.2 386.57 675.23 397.32 670 408.05 665.2 418.85 661.06 429.68 658.3 440.52 656.53 451.13 655.77 461.48 656.46 471.81 657.99 481.82 660.21 491.46 663.46 501.01 667 510.1 670.59 518.64 674.57 527 678.14 534.72 681.09 541.7 684.67 551.35 685.53 565.96 682.35 570.88 679.02 573.71 674.44 575.82 668.69 577.35 662.23 579.06 654.74 580.5 646.38 581.9 637.51 584.03 627.94 586.57 617.82 589.79 607.42 594.3 596.64 599.88 585.62 606.7 574.49 615.1 563.23 624.8 551.92 635.74 540.63 647.92 529.36 660.88 518.17 674.23 507.03 687.73 496 700.71 485.08 712.57 474.23 723.08 463.5 731.46 452.89 737.23 442.34 740.53 431.89 740.72 421.56 737.73 411.26 732.32 401.05 724.22 390.95 713.9 380.85 702.64 371.09 690.76 361.65 679.04 352.19 668.43 343.05 659.15 334.23 651.6 325.38 646.38 316.83 643.21 308.6 642.01 300.31 643.05 292.31 645.54 284.62 649.06 276.84 653.76 269.33 658.58 262.09 663.05 254.73 667.42 247.6 670.66 240.71 672.49 233.66 673.31 226.8 672.36 220.12 669.62 213.26 665.58 206.55 659.81 200.01 652.49 193.25 644.07 186.64 634.41 180.19 623.77 173.55 612.45 167.08 600.5 160.81 588.16 154.4 575.55 148.23 562.81 142.36 550.1 136.42 537.39 130.82 524.85 125.63 512.55 120.48 500.37 115.8 488.47 111.64 476.88 107.61 465.4 104.17 454.2 101.35 443.27 98.75 432.43 96.8 421.8 95.56 411.4 94.57 401.03 94.29 390.85 94.74 380.86 95.42 370.87 96.8 361.29 98.82 352.13 100.98 342.96 103.73 334.2 107.01 325.87 110.32 317.54 114.1 309.63 118.29 302.17 122.4 294.69 126.87 287.65 131.62 281.03 136.21 274.35 141.06 268.06 146.12 262.12 150.96 256.03 155.99 250.21 161.2 244.6 166.17 238.7 171.33 232.9 176.67 227.12 181.8 220.89 187.15 214.57 192.71 208.11 198.11 201.1 203.78 193.87 209.7 186.44 215.54 178.49 221.67 170.38 228.12 162.17 234.52 153.68 241.26 145.28 248.32 137.14 255.38 129.09 262.78 121.58 270.5 114.79 278.23 108.52 286.28 103.26 294.62 99.13 302.99 95.82 311.63 93.77 320.52 93.01 329.43 93.01 338.57 94.18 347.92 96.39 357.28 98.95 366.84 102.2 376.58 105.93" stroke-dasharray="10 1" transform="rotate(19.71428571428571, 400, 400)" opacity="0.80"></path><path d="M378.99 119.15C388.36 122.57 397.75 125.99 407.13 129.23 416.53 131.74 425.96 133.91 435.4 135.72 444.89 136.7 454.44 137.41 464.04 137.93 473.73 137.87 483.53 137.87 493.42 138.08 503.46 138.14 513.62 138.69 523.92 139.84 534.37 141.25 544.95 143.48 555.64 146.57 566.45 150.17 577.32 154.7 588.17 160.14 599.05 166.14 609.8 173 620.32 180.6 630.66 188.69 640.59 197.41 649.96 206.65 658.88 216.21 667.02 226.15 674.23 236.36 680.72 246.73 686.08 257.27 690.18 267.91 693.4 278.59 695.27 289.31 695.75 300.01 695.38 310.7 693.71 321.37 690.81 331.98 687.37 342.56 683 353.11 677.86 363.61 672.76 374.09 667.34 384.55 661.84 394.95 657.04 405.36 652.61 415.73 648.75 426.03 646.12 436.34 644.36 446.32 643.49 455.94 643.91 465.53 645.07 474.72 646.86 483.45 649.62 492.1 652.65 500.23 655.77 507.76 659.32 515.15 662.55 521.87 665.28 527.89 669.66 542.6 663.88 557.36 657.25 560.45 651.83 562.74 645.43 565 638.16 567.42 630.39 570.65 621.9 574.42 612.82 578.94 603.42 584.69 593.59 591.46 583.43 599.33 573.11 608.56 562.59 618.86 551.96 630.12 541.29 642.28 530.57 654.94 519.86 667.7 509.19 680.35 498.55 692.3 488.01 703.01 477.51 712.35 467.1 719.62 456.8 724.42 446.55 726.96 436.39 726.67 426.36 723.5 416.35 718.18 406.43 710.44 396.64 700.68 386.85 690.08 377.39 678.87 368.25 667.72 359.1 657.51 350.26 648.39 341.73 640.74 333.16 635.13 324.89 631.33 316.91 629.3 308.87 629.34 301.1 630.78 293.61 633.28 286.03 637.03 278.7 641.11 271.6 645.08 264.39 649.22 257.38 652.56 250.57 654.83 243.61 656.39 236.82 656.49 230.2 655.04 223.39 652.52 216.73 648.41 210.22 642.84 203.52 636.25 196.96 628.39 190.56 619.47 183.99 609.83 177.59 599.42 171.39 588.46 165.08 577.11 159.01 565.45 153.24 553.65 147.42 541.74 141.94 529.83 136.87 518.05 131.85 506.29 127.28 494.72 123.23 483.39 119.33 472.12 115.99 461.1 113.27 450.35 110.76 439.66 108.9 429.21 107.72 419.02 106.79 408.85 106.56 398.91 107.05 389.22 107.77 379.52 109.17 370.28 111.19 361.49 113.36 352.68 116.1 344.3 119.35 336.36 122.65 328.39 126.39 320.83 130.53 313.7 134.62 306.51 139.03 299.71 143.73 293.28 148.29 286.73 153.09 280.5 158.09 274.54 162.89 268.38 167.88 262.4 173.03 256.55 177.95 250.37 183.05 244.22 188.31 238.04 193.36 231.42 198.6 224.67 204.03 217.77 209.3 210.38 214.79 202.81 220.52 195.07 226.14 186.92 232.02 178.68 238.18 170.44 244.28 162.03 250.68 153.81 257.37 145.92 264.04 138.22 271.02 131.12 278.31 124.79 285.59 119.02 293.18 114.25 301.05 110.6 308.93 107.73 317.09 106.06 325.51 105.61 333.94 105.87 342.62 107.21 351.54 109.54 360.45 112.16 369.6 115.42 378.98 119.14" stroke-dasharray="14 9" transform="rotate(23, 400, 400)" opacity="0.76"></path><path d="M382.6 132.37C391.63 135.78 400.71 139.2 409.83 142.46 418.97 145.04 428.17 147.31 437.42 149.24 446.72 150.39 456.11 151.26 465.57 151.91 475.1 151.98 484.75 152.06 494.5 152.26 504.35 152.24 514.31 152.61 524.38 153.47 534.54 154.48 544.8 156.2 555.09 158.66 565.44 161.54 575.78 165.27 586.02 169.83 596.21 174.91 606.2 180.8 615.87 187.43 625.31 194.54 634.28 202.31 642.64 210.63 650.54 219.31 657.65 228.43 663.84 237.89 669.36 247.56 673.81 257.48 677.09 267.55 679.59 277.73 680.86 288 680.89 298.29 680.2 308.62 678.37 318.95 675.46 329.24 672.14 339.53 668.01 349.77 663.23 359.94 658.52 370.1 653.55 380.19 648.5 390.18 644.11 400.17 640.03 410.05 636.44 419.79 633.95 429.53 632.21 438.87 631.23 447.78 631.41 456.67 632.25 465.1 633.64 473.03 635.92 480.88 638.48 488.19 641.14 494.9 645.68 504.49 652.94 520.3 654.8 526.52 655.24 532.08 650.38 541.03 645 545 640.53 548.07 635.12 551.27 628.87 554.78 622.16 559.13 614.72 564.09 606.66 569.79 598.29 576.62 589.42 584.36 580.18 593.06 570.75 602.86 561.05 613.5 551.16 624.82 541.2 636.76 531.13 648.92 521.02 660.95 510.89 672.67 500.77 683.53 490.68 693.1 480.62 701.3 470.61 707.52 460.69 711.42 450.8 713.28 440.99 712.56 431.28 709.25 421.6 704.05 412 696.67 402.52 687.47 393.04 677.5 383.88 666.94 375.03 656.38 366.17 646.58 357.6 637.68 349.33 630 341.02 624.09 332.98 619.76 325.22 616.99 317.39 616.12 309.82 616.56 302.49 618.07 295.08 620.85 287.88 624.09 280.9 627.44 273.79 631.15 266.88 634.36 260.14 636.79 253.25 638.8 246.52 639.63 239.94 639.18 233.19 637.89 226.58 635.21 220.11 631.18 213.47 626.25 206.97 620.1 200.63 612.87 194.14 604.93 187.83 596.13 181.72 586.66 175.53 576.75 169.58 566.38 163.92 555.72 158.24 544.85 152.91 533.84 147.97 522.83 143.1 511.76 138.67 500.77 134.75 489.93 130.99 479.11 127.77 468.46 125.15 458.05 122.75 447.67 120.98 437.51 119.88 427.6 119.03 417.71 118.84 408.05 119.36 398.65 120.11 389.25 121.52 380.3 123.53 371.8 125.69 363.28 128.41 355.18 131.61 347.49 134.88 339.77 138.58 332.43 142.66 325.46 146.7 318.41 151.07 311.69 155.71 305.28 160.22 298.72 164.97 292.4 169.92 286.27 174.68 279.92 179.62 273.67 184.72 267.49 189.6 260.98 194.65 254.45 199.84 247.84 204.84 240.83 210 233.7 215.33 226.41 220.49 218.72 225.86 210.89 231.43 202.95 236.88 194.71 242.56 186.46 248.49 178.3 254.34 170.07 260.46 162.12 266.85 154.59 273.19 147.32 279.82 140.69 286.74 134.87 293.63 129.62 300.82 125.36 308.28 122.18 315.73 119.75 323.47 118.46 331.48 118.31 339.47 118.81 347.74 120.31 356.26 122.72 364.78 125.4 373.56 128.66 382.59 132.36" stroke-dasharray="5 10" transform="rotate(26.285714285714285, 400, 400)" opacity="0.73"></path><path d="M387.21 145.58C395.91 148.97 404.69 152.38 413.53 155.65 422.4 158.29 431.35 160.66 440.37 162.71 449.43 164.02 458.59 165.05 467.83 165.87 477.13 166.1 486.54 166.28 496.02 166.53 505.59 166.5 515.24 166.76 524.94 167.41 534.71 168.12 544.5 169.41 554.28 171.35 564.05 173.59 573.74 176.59 583.27 180.35 592.69 184.54 601.84 189.5 610.62 195.17 619.13 201.29 627.12 208.06 634.48 215.41 641.39 223.12 647.52 231.31 652.76 239.89 657.38 248.72 661.01 257.85 663.55 267.19 665.42 276.69 666.2 286.33 665.86 296.04 664.94 305.83 663.01 315.64 660.14 325.44 656.97 335.27 653.1 345.06 648.67 354.76 644.36 364.48 639.81 374.1 635.21 383.58 631.2 393.08 627.46 402.42 624.12 411.57 621.78 420.72 620.06 429.44 619 437.7 618.97 445.94 619.51 453.7 620.54 460.94 622.38 468.14 624.48 474.8 626.7 480.9 630.61 489.67 637.14 504.36 639.01 510.4 639.75 516.09 636.31 526.3 632.01 531.4 628.37 535.34 623.85 539.53 618.55 544.13 612.82 549.53 606.38 555.55 599.32 562.27 591.94 569.97 584.05 578.46 575.74 587.72 567.23 597.83 558.39 608.56 549.31 619.71 540.13 631.23 530.78 642.74 521.33 653.91 511.85 664.62 502.3 674.38 492.75 682.81 483.21 689.92 473.67 695.15 464.19 698.23 454.72 699.47 445.31 698.39 435.98 694.98 426.66 689.92 417.41 682.91 408.26 674.25 399.11 664.91 390.25 655 381.68 645.01 373.1 635.66 364.79 627.01 356.76 619.37 348.68 613.25 340.86 608.48 333.29 605.09 325.65 603.39 318.25 602.92 311.06 603.46 303.78 605.27 296.7 607.63 289.82 610.25 282.81 613.39 275.97 616.26 269.3 618.61 262.48 620.79 255.81 622.07 249.27 622.32 242.59 621.96 236.03 620.41 229.61 617.67 223.05 614.2 216.63 609.58 210.36 603.91 203.98 597.6 197.78 590.39 191.79 582.44 185.73 574.03 179.92 565.06 174.41 555.68 168.9 546.03 163.72 536.12 158.94 526.07 154.24 515.91 149.98 505.71 146.21 495.56 142.59 485.38 139.52 475.3 137.02 465.37 134.74 455.46 133.07 445.71 132.04 436.17 131.26 426.64 131.13 417.32 131.67 408.22 132.45 399.12 133.85 390.44 135.84 382.18 137.99 373.9 140.66 366 143.81 358.47 147.03 350.89 150.67 343.65 154.68 336.73 158.66 329.71 162.96 322.95 167.53 316.43 171.99 309.75 176.68 303.24 181.56 296.87 186.29 290.25 191.18 283.69 196.23 277.14 201.08 270.29 206.08 263.38 211.22 256.38 216.17 249.04 221.27 241.58 226.53 234.01 231.62 226.12 236.88 218.14 242.34 210.12 247.65 201.91 253.18 193.78 258.93 185.81 264.57 177.89 270.47 170.31 276.61 163.2 282.68 156.43 289.02 150.34 295.63 145.05 302.2 140.35 309.04 136.61 316.16 133.91 323.24 131.91 330.61 130.98 338.25 131.12 345.87 131.84 353.76 133.48 361.92 135.96 370.07 138.66 378.5 141.92 387.2 145.58" stroke-dasharray="12 13" transform="rotate(29.571428571428573, 400, 400)" opacity="0.69"></path><path d="M392.56 158.8C400.94 162.16 409.4 165.53 417.95 168.81 426.51 171.49 435.17 173.94 443.91 176.1 452.68 177.57 461.55 178.78 470.49 179.77 479.48 180.18 488.55 180.51 497.68 180.85 506.85 180.87 516.07 181.09 525.31 181.61 534.56 182.11 543.79 183.07 552.94 184.58 562.05 186.3 571.02 188.67 579.76 191.71 588.35 195.09 596.62 199.18 604.47 203.94 612.04 209.09 619.08 214.87 625.47 221.22 631.43 227.92 636.64 235.13 641 242.75 644.81 250.64 647.71 258.87 649.62 267.36 650.96 276.03 651.31 284.89 650.69 293.86 649.6 302.95 647.64 312.11 644.86 321.27 641.87 330.49 638.27 339.69 634.2 348.81 630.27 357.97 626.14 367.03 621.96 375.94 618.32 384.87 614.9 393.64 611.81 402.2 609.6 410.75 607.92 418.88 606.79 426.56 606.58 434.22 606.86 441.41 607.55 448.12 608.99 454.8 610.66 460.99 612.45 466.69 615.75 474.96 621.46 489.26 623.22 495.48 624.13 501.62 621.79 513.57 618.38 519.93 615.44 524.75 611.72 529.9 607.26 535.49 602.42 541.81 596.9 548.71 590.78 556.24 584.36 564.57 577.42 573.54 570.03 583.1 562.43 593.28 554.48 603.85 546.23 614.63 537.88 625.55 529.3 636.28 520.56 646.5 511.77 656.17 502.88 664.83 493.92 672.16 484.96 678.22 475.96 682.53 466.97 684.86 457.99 685.56 449.02 684.17 440.1 680.7 431.19 675.8 422.32 669.16 413.52 661.03 404.72 652.31 396.18 643.02 387.9 633.62 379.6 624.72 371.55 616.37 363.74 608.83 355.9 602.59 348.28 597.48 340.89 593.56 333.44 591.15 326.18 589.84 319.12 589.49 311.98 590.35 305.01 591.81 298.21 593.63 291.31 596.09 284.55 598.46 277.94 600.53 271.2 602.64 264.6 604.09 258.12 604.75 251.52 605.02 245.04 604.31 238.69 602.59 232.23 600.3 225.91 596.98 219.75 592.69 213.5 587.84 207.44 582.11 201.59 575.63 195.7 568.7 190.06 561.14 184.71 553.09 179.39 544.76 174.4 536.05 169.79 527.1 165.28 518 161.2 508.75 157.6 499.43 154.16 490.06 151.23 480.69 148.87 471.38 146.72 462.06 145.15 452.84 144.21 443.75 143.5 434.67 143.42 425.74 143.99 416.97 144.78 408.2 146.17 399.79 148.13 391.74 150.24 383.66 152.86 375.92 155.94 368.48 159.1 361 162.66 353.78 166.58 346.82 170.49 339.76 174.71 332.89 179.19 326.2 183.58 319.35 188.21 312.61 193.02 305.94 197.69 299.05 202.53 292.18 207.52 285.29 212.34 278.13 217.3 270.9 222.39 263.6 227.3 256.01 232.35 248.34 237.55 240.6 242.58 232.63 247.77 224.64 253.13 216.69 258.34 208.64 263.75 200.74 269.35 193.09 274.84 185.57 280.56 178.44 286.5 171.85 292.36 165.63 298.46 160.1 304.81 155.39 311.1 151.25 317.66 148.03 324.47 145.8 331.24 144.22 338.29 143.63 345.6 144.03 352.88 144.94 360.44 146.71 368.27 149.24 376.08 151.96 384.18 155.19 392.55 158.79" stroke-dasharray="16 3" transform="rotate(32.85714285714286, 400, 400)" opacity="0.66"></path><path d="M398.34 172.02C406.39 175.32 414.53 178.66 422.75 181.92 430.98 184.64 439.31 187.16 447.71 189.42 456.14 191.05 464.64 192.43 473.2 193.6 481.8 194.2 490.45 194.71 499.12 195.18 507.82 195.3 516.52 195.55 525.19 196.02 533.84 196.39 542.42 197.13 550.87 198.31 559.24 199.61 567.42 201.46 575.33 203.89 583.06 206.57 590.44 209.89 597.37 213.81 604.02 218.05 610.12 222.89 615.6 228.28 620.68 233.98 625.04 240.18 628.61 246.82 631.7 253.71 633.96 260.97 635.33 268.53 636.23 276.28 636.26 284.26 635.43 292.4 634.24 300.67 632.28 309.04 629.64 317.46 626.84 325.96 623.54 334.46 619.82 342.92 616.27 351.42 612.54 359.84 608.75 368.14 605.47 376.45 602.35 384.62 599.5 392.6 597.42 400.58 595.79 408.16 594.61 415.33 594.24 422.48 594.28 429.22 594.68 435.53 596.38 444.78 601.11 461.26 603.54 468.6 605.93 475.75 608.45 489.22 608.19 495.89 607.56 500.68 606.23 505.59 604.21 510.72 601.86 516.36 598.81 522.36 595.08 528.78 591.04 535.83 586.36 543.4 581.1 551.49 575.57 560.2 569.51 569.4 563.01 579 556.31 589.01 549.23 599.22 541.82 609.44 534.29 619.62 526.5 629.45 518.52 638.68 510.46 647.28 502.26 654.84 493.94 661.11 485.61 666.2 477.19 669.65 468.74 671.32 460.29 671.54 451.82 669.89 443.35 666.41 434.88 661.69 426.43 655.41 418 647.82 409.58 639.68 401.37 631.02 393.39 622.2 385.4 613.77 377.61 605.75 370.04 598.38 362.44 592.09 355.03 586.74 347.81 582.4 340.54 579.37 333.44 577.32 326.51 576.16 319.51 576.12 312.66 576.7 305.96 577.7 299.17 579.39 292.51 581.15 285.97 582.78 279.34 584.61 272.82 585.99 266.43 586.8 259.94 587.41 253.56 587.24 247.33 586.25 240.99 584.86 234.81 582.58 228.78 579.43 222.7 575.83 216.8 571.41 211.12 566.24 205.43 560.69 199.99 554.49 194.83 547.74 189.72 540.71 184.95 533.24 180.54 525.43 176.24 517.46 172.36 509.24 168.94 500.86 165.69 492.4 162.93 483.84 160.71 475.26 158.69 466.64 157.24 458.03 156.38 449.48 155.75 440.92 155.71 432.43 156.3 424.02 157.1 415.62 158.47 407.5 160.39 399.65 162.45 391.79 165.01 384.18 168.01 376.81 171.08 369.39 174.55 362.17 178.37 355.14 182.19 348.02 186.31 341.02 190.69 334.15 195 327.12 199.54 320.16 204.26 313.23 208.87 306.11 213.65 298.98 218.57 291.81 223.34 284.43 228.25 276.99 233.29 269.5 238.16 261.8 243.17 254.05 248.31 246.28 253.29 238.38 258.42 230.52 263.7 222.76 268.84 215.01 274.15 207.47 279.63 200.24 285 193.21 290.57 186.62 296.34 180.6 302.03 174.98 307.94 170.05 314.07 165.92 320.14 162.34 326.45 159.64 332.99 157.87 339.5 156.68 346.26 156.41 353.27 157.05 360.26 158.14 367.51 160 375.02 162.56 382.52 165.28 390.29 168.47 398.33 172.01" stroke-dasharray="11 5" transform="rotate(36.14285714285714, 400, 400)" opacity="0.63"></path><path d="M404.22 185.23C411.92 188.48 419.72 191.76 427.58 194.99 435.45 197.73 443.4 200.3 451.41 202.66 459.43 204.43 467.51 205.98 475.63 207.32 483.75 208.13 491.91 208.83 500.05 209.47 508.19 209.73 516.29 210.07 524.32 210.57 532.31 210.89 540.18 211.51 547.87 212.47 555.47 213.46 562.82 214.91 569.88 216.84 576.75 218.94 583.24 221.59 589.28 224.78 595.05 228.21 600.28 232.19 604.9 236.69 609.17 241.44 612.77 246.68 615.64 252.35 618.11 258.25 619.82 264.54 620.74 271.14 621.28 277.93 621.07 284.97 620.11 292.22 618.86 299.59 616.97 307.12 614.48 314.73 611.91 322.42 608.89 330.16 605.53 337.9 602.34 345.68 598.99 353.42 595.59 361.08 592.63 368.75 589.81 376.32 587.19 383.74 585.25 391.16 583.66 398.25 582.45 404.98 581.95 411.71 581.78 418.1 581.91 424.14 583.1 433.05 586.69 449.37 588.61 456.92 590.6 464.45 592.81 479.26 592.68 486.87 592.26 492.3 591.24 497.92 589.61 503.79 587.75 510.11 585.25 516.78 582.15 523.83 578.79 531.4 574.84 539.39 570.34 547.78 565.62 556.62 560.39 565.79 554.72 575.19 548.86 584.82 542.61 594.47 536.02 603.98 529.31 613.31 522.31 622.19 515.08 630.38 507.77 637.91 500.27 644.41 492.63 649.68 484.95 653.86 477.15 656.54 469.28 657.61 461.39 657.42 453.44 655.58 445.46 652.11 437.48 647.58 429.46 641.68 421.44 634.6 413.42 627.05 405.58 618.99 397.92 610.75 390.25 602.81 382.75 595.15 375.42 588 368.08 581.74 360.89 576.24 353.86 571.58 346.8 568.05 339.87 565.37 333.09 563.48 326.25 562.61 319.54 562.35 312.96 562.54 306.31 563.44 299.77 564.5 293.34 565.57 286.84 566.95 280.45 568.07 274.18 568.8 267.83 569.49 261.59 569.6 255.5 569.06 249.33 568.27 243.31 566.74 237.47 564.47 231.58 561.86 225.88 558.52 220.41 554.49 214.94 550.13 209.72 545.14 204.8 539.59 199.93 533.78 195.38 527.5 191.2 520.82 187.13 513.97 183.47 506.81 180.25 499.4 177.19 491.89 174.61 484.21 172.54 476.4 170.67 468.55 169.33 460.62 168.56 452.65 168 444.68 168.01 436.68 168.61 428.68 169.41 420.69 170.76 412.88 172.62 405.26 174.63 397.63 177.11 390.18 180.01 382.88 182.99 375.55 186.35 368.34 190.05 361.26 193.76 354.1 197.76 347.01 202.02 339.98 206.23 332.84 210.66 325.72 215.29 318.6 219.81 311.34 224.51 304.05 229.34 296.73 234.05 289.25 238.9 281.73 243.87 274.18 248.7 266.51 253.66 258.83 258.73 251.2 263.67 243.51 268.74 235.92 273.94 228.5 279.02 221.16 284.25 214.09 289.63 207.39 294.9 200.92 300.35 194.94 305.98 189.53 311.52 184.54 317.26 180.23 323.2 176.68 329.08 173.66 335.17 171.46 341.48 170.12 347.76 169.31 354.26 169.33 361 170.18 367.71 171.42 374.66 173.36 381.87 175.94 389.05 178.64 396.5 181.77 404.21 185.23" stroke-dasharray="5 6" transform="rotate(39.42857142857142, 400, 400)" opacity="0.59"></path><path d="M409.85 198.45C417.2 201.62 424.62 204.84 432.08 208.01 439.56 210.77 447.09 213.38 454.65 215.8 462.23 217.7 469.83 219.41 477.43 220.93 485.03 221.95 492.63 222.85 500.17 223.67 507.7 224.12 515.15 224.6 522.49 225.17 529.77 225.53 536.89 226.11 543.8 226.95 550.6 227.75 557.13 228.91 563.34 230.47 572.19 233.18 587.35 241.18 593.41 246.5 598.42 252.58 604.72 267.16 605.92 275.5 606.18 281.34 605.79 287.45 604.75 293.8 603.51 300.26 601.72 306.91 599.42 313.69 597.07 320.55 594.36 327.5 591.34 334.49 588.5 341.53 585.51 348.57 582.47 355.59 579.83 362.62 577.27 369.61 574.88 376.5 573.07 383.4 571.54 390.04 570.32 396.41 569.7 402.78 569.36 408.9 569.26 414.76 569.99 423.46 572.51 439.9 573.94 447.78 575.5 455.76 577.27 471.92 577.17 480.38 576.87 486.36 576.05 492.56 574.72 499 573.22 505.82 571.17 512.95 568.58 520.4 565.79 528.24 562.47 536.39 558.64 544.82 554.63 553.55 550.14 562.45 545.22 571.44 540.14 580.5 534.67 589.45 528.85 598.13 522.92 606.54 516.68 614.41 510.19 621.56 503.62 628.04 496.84 633.54 489.86 637.86 482.86 641.21 475.69 643.2 468.41 643.75 461.12 643.21 453.72 641.22 446.25 637.8 438.78 633.48 431.23 627.96 423.65 621.38 416.06 614.4 408.6 606.94 401.29 599.26 393.97 591.82 386.78 584.56 379.73 577.67 372.67 571.51 365.73 565.95 358.92 561.07 352.08 557.15 345.36 553.95 338.76 551.43 332.11 549.84 325.57 548.8 319.15 548.21 312.66 548.31 306.28 548.65 300.01 549.09 293.68 549.91 287.45 550.61 281.34 551.07 275.17 551.63 269.12 551.76 263.21 551.41 257.25 550.95 251.45 549.9 245.81 548.24 240.16 546.36 234.7 543.84 229.47 540.71 224.26 537.33 219.29 533.36 214.62 528.84 210.01 524.12 205.72 518.91 201.78 513.27 197.96 507.48 194.53 501.32 191.52 494.85 188.68 488.3 186.28 481.49 184.37 474.47 182.65 467.42 181.43 460.2 180.74 452.85 180.26 445.49 180.31 438.03 180.92 430.48 181.72 422.93 183.04 415.48 184.83 408.14 186.78 400.78 189.16 393.52 191.95 386.35 194.82 379.15 198.06 372.01 201.62 364.93 205.2 357.8 209.07 350.69 213.19 343.61 217.28 336.43 221.59 329.26 226.08 322.07 230.5 314.78 235.09 307.47 239.83 300.13 244.46 292.7 249.22 285.26 254.11 277.83 258.88 270.34 263.76 262.89 268.77 255.54 273.65 248.2 278.65 241.02 283.77 234.07 288.78 227.25 293.93 220.75 299.21 214.64 304.39 208.81 309.73 203.48 315.22 198.72 320.64 194.37 326.23 190.68 331.99 187.72 337.7 185.23 343.6 183.51 349.69 182.58 355.75 182.11 362.01 182.4 368.48 183.43 374.93 184.8 381.6 186.79 388.49 189.36 395.37 192.02 402.49 195.08 409.84 198.44" stroke-dasharray="14 10" transform="rotate(42.714285714285715, 400, 400)" opacity="0.56"></path><path d="M414.91 211.67C421.88 214.74 428.9 217.88 435.94 221 442.98 223.74 450.06 226.37 457.13 228.85 464.21 230.86 471.28 232.71 478.33 234.39 485.36 235.62 492.35 236.72 499.25 237.74 506.13 238.39 512.9 239.05 519.51 239.75 526.06 240.21 532.42 240.83 538.55 241.64 547.43 242.85 563.33 246.84 570.15 249.8 576.18 253.31 585.28 262.63 588.22 268.39 590.15 274.76 590.71 289.37 589.41 297.48 588.21 303.06 586.55 308.86 584.45 314.83 582.35 320.86 579.93 327.03 577.24 333.3 574.74 339.6 572.1 345.96 569.39 352.36 567.04 358.77 564.75 365.2 562.57 371.61 560.89 378.02 559.43 384.26 558.2 390.32 557.25 399.34 557.03 416.6 557.53 424.94 558.59 433.28 560.66 449.9 561.37 458.37 561.83 464.23 561.97 470.2 561.74 476.32 561.48 482.71 560.79 489.29 559.66 496.1 558.42 503.21 556.71 510.56 554.53 518.15 552.2 526.02 549.4 534.09 546.14 542.31 542.73 550.7 538.89 559.14 534.63 567.53 530.25 575.88 525.49 584 520.38 591.77 515.18 599.2 509.66 606.06 503.87 612.18 498.02 617.66 491.92 622.2 485.62 625.66 479.27 628.26 472.75 629.64 466.07 629.74 459.37 628.92 452.54 626.82 445.6 623.49 438.66 619.4 431.61 614.25 424.49 608.17 417.36 601.73 410.32 594.85 403.39 587.75 396.44 580.81 389.6 573.97 382.86 567.39 376.1 561.39 369.45 555.85 362.89 550.85 356.32 546.65 349.84 543.04 343.45 540.01 337.04 537.79 330.71 536.06 324.48 534.76 318.22 534.11 312.04 533.72 305.96 533.5 299.85 533.7 293.83 533.87 287.93 533.93 279.08 534.15 262 532.97 253.84 531.25 245.88 528.85 231.06 521.17 224.32 515.9 220 512.08 215.98 507.77 212.31 503.03 208.75 498.18 205.57 492.93 202.78 487.33 200.15 481.66 197.95 475.68 196.2 469.44 194.63 463.15 193.54 456.64 192.94 449.93 192.53 443.21 192.62 436.3 193.23 429.24 194.02 422.18 195.3 415.13 197.02 408.11 198.89 401.09 201.17 394.08 203.83 387.1 206.58 380.11 209.67 373.12 213.08 366.15 216.52 359.13 220.23 352.11 224.19 345.09 228.13 338.01 232.29 330.91 236.64 323.8 240.93 316.64 245.39 309.45 250 302.27 254.52 295.05 259.18 287.84 263.96 280.68 268.64 273.53 273.43 266.47 278.34 259.54 283.15 252.69 288.07 246.04 293.09 239.66 298.03 233.46 303.08 227.6 308.25 222.15 313.34 217 318.57 212.34 323.93 208.25 329.22 204.54 334.66 201.46 340.25 199.05 345.79 197.08 351.5 195.8 357.38 195.25 363.22 195.09 369.25 195.61 375.45 196.8 381.64 198.26 388.02 200.29 394.6 202.82 401.16 205.43 407.93 208.4 414.9 211.66" stroke-dasharray="10 11" transform="rotate(46, 400, 400)" opacity="0.53"></path><path d="M419.12 224.88C425.69 227.86 432.27 230.9 438.85 233.93 445.44 236.65 452.02 239.28 458.57 241.79 465.12 243.9 471.63 245.87 478.08 247.69 484.52 249.11 490.87 250.41 497.11 251.64 503.32 252.5 509.39 253.36 515.28 254.23 521.1 254.84 526.72 255.56 532.08 256.41 542.47 257.74 551.63 260.07 559.2 263.58 568.51 269.81 575.35 284.17 575.76 290.1 575.41 296.47 572.23 310.69 569.59 318.42 567.74 323.68 565.61 329.12 563.25 334.7 561.06 340.31 558.74 346.03 556.36 351.85 554.28 357.67 552.24 363.58 550.26 369.54 548.71 375.5 547.32 381.38 546.1 387.16 545.03 395.81 544.22 412.78 544.32 421.17 544.91 429.64 546.12 446.84 546.48 455.71 546.76 461.81 546.77 468.05 546.48 474.44 545.89 487.8 543.81 501.93 540.15 516.72 536.09 532.14 530.38 547.86 523.13 563.24 519.35 570.76 515.22 577.99 510.75 584.79 506.21 591.24 501.35 597.09 496.22 602.22 491.03 606.75 485.59 610.41 479.93 613.09 474.23 615.02 468.32 615.87 462.24 615.6 456.15 614.55 449.89 612.4 443.49 609.18 437.09 605.32 430.56 600.55 423.92 594.95 417.27 589.05 410.68 582.74 404.15 576.19 397.62 569.76 391.15 563.36 384.75 557.13 378.35 551.35 372.01 545.92 365.75 540.89 359.48 536.52 353.28 532.61 347.17 529.19 341.03 526.45 334.96 524.13 328.98 522.21 322.98 520.87 317.05 519.8 311.23 518.93 299.51 518.4 288.16 517.8 277.36 516.53 266.55 515.58 256.36 513.19 247 509.13 240.21 505.67 228.06 496.38 222.8 490.59 218.06 484.27 210.63 469.69 208.05 461.54 206.63 455.98 205.66 450.15 205.14 444.06 204.81 437.96 204.93 431.63 205.54 425.09 206.32 418.54 207.54 411.94 209.19 405.3 210.97 398.67 213.13 391.99 215.66 385.3 218.27 378.6 221.21 371.86 224.44 365.1 227.71 358.33 231.25 351.53 235.03 344.7 238.81 337.86 242.79 330.99 246.96 324.11 251.1 317.22 255.4 310.32 259.85 303.46 268.55 289.75 277.78 276.3 287.42 263.46 296.73 251.1 306.5 239.79 316.66 230.03 321.64 225.58 326.73 221.6 331.95 218.17 339.74 213.84 355.92 208.79 364.33 208.14 369.95 208.25 375.73 208.97 381.66 210.28 387.58 211.81 393.66 213.85 399.9 216.34 406.13 218.87 412.54 221.74 419.11 224.88" stroke-dasharray="8 6" transform="rotate(49.285714285714285, 400, 400)" opacity="0.49"></path><path d="M422.22 238.1C434.51 243.61 446.73 249.24 458.75 254.63 470.74 258.59 482.45 262.14 493.64 265.31 504.67 267.16 515.01 269.03 524.38 271.15 533.37 272.6 541.14 274.81 547.42 277.95 553.09 281.03 557.11 285.33 559.3 290.85 560.87 296.58 560.71 303.53 558.88 311.56 556.84 319.78 553.57 328.94 549.35 338.85 545.76 348.82 541.86 359.42 537.95 370.5 535.48 381.59 533.46 392.67 531.91 403.68 531.75 414.8 531.71 426.06 531.59 437.5 532.25 449.3 532.29 461.56 531.47 474.3 530.79 487.59 528.86 501.46 525.62 515.68 522.13 530.18 517.19 544.61 510.89 558.38 504.29 571.4 496.4 582.77 487.39 591.66 478.18 598.42 468 601.8 457.02 601.33 445.98 598.29 434.25 591.62 421.96 581.73 409.68 570.82 397.46 558.86 385.44 546.89 373.4 536.31 361.53 526.88 349.93 518.92 338.3 513.23 326.9 508.85 315.85 505.46 304.78 503.68 294.07 502.05 283.89 500.09 273.77 498.69 264.25 496.25 255.56 492.54 247.09 488.74 239.59 483.42 233.27 476.59 227.4 469.55 222.88 461.08 219.91 451.33 217.54 441.47 216.81 430.46 217.85 418.43 219.51 406.4 222.78 393.98 227.43 381.34 232.42 368.7 238.59 355.83 245.72 342.88 252.88 329.93 260.83 316.93 269.38 304.1 277.76 291.43 286.67 279.14 295.98 267.58 305.04 256.59 314.52 246.73 324.36 238.4 333.97 231.16 344.02 225.84 354.48 222.75 364.79 220.92 375.6 221.31 386.9 223.88 398.13 227.16 409.92 232.01 422.21 238.09" stroke-dasharray="10 1" transform="rotate(52.57142857142857, 400, 400)" opacity="0.46"></path><path d="M424.04 251.32C435.43 256.59 446.64 262.04 457.54 267.34 468.4 271.44 478.88 275.23 488.77 278.71 498.5 281.01 507.5 283.28 515.52 285.7 526.48 288.54 541.23 297.3 544.49 303.97 545.69 308.81 545.43 314.76 543.75 321.71 541.99 328.77 539.19 336.77 535.56 345.61 532.5 354.48 529.12 364.1 525.63 374.41 523.35 384.72 521.35 395.25 519.65 405.93 519.12 416.71 518.65 427.8 518.07 439.17 518.21 450.81 517.84 462.91 516.78 475.39 515.93 488.2 514.06 501.37 511.09 514.62 507.99 527.87 503.67 540.77 498.15 552.78 492.42 563.93 485.52 573.38 477.58 580.5 469.48 585.75 460.43 588.01 450.57 586.95 440.65 583.79 430 577.54 418.75 568.52 407.49 558.64 396.2 547.73 385.01 536.65 373.82 526.62 362.73 517.35 351.85 509.18 340.96 502.83 330.28 497.55 319.93 493.16 309.59 490.22 299.61 487.56 290.14 484.81 280.78 482.73 272.01 479.97 264.02 476.29 256.29 472.69 249.46 467.89 243.75 461.82 238.46 455.65 234.41 448.2 231.79 439.52 229.71 430.77 229.13 420.88 230.16 409.94 231.75 398.99 234.82 387.55 239.16 375.83 243.82 364.15 249.59 352.19 256.26 340.17 263.01 328.24 270.51 316.31 278.6 304.64 286.6 293.23 295.11 282.3 304 272.17 312.72 262.65 321.84 254.26 331.28 247.37 340.55 241.45 350.2 237.3 360.19 235.14 370.06 234.03 380.35 234.86 390.99 237.6 401.6 240.87 412.64 245.53 424.03 251.31" stroke-dasharray="4 4" transform="rotate(55.857142857142854, 400, 400)" opacity="0.42"></path><path d="M424.47 264.53C434.92 269.54 445.1 274.77 454.87 279.94 464.61 284.11 473.89 288.08 482.53 291.81 491.03 294.52 498.77 297.18 505.58 299.93 514.85 303.2 527 311.83 529.55 317.88 530.51 322.13 530.22 327.34 528.75 333.47 527.29 339.62 524.94 346.69 521.87 354.62 519.3 362.55 516.4 371.31 513.32 380.87 511.23 390.42 509.27 400.35 507.48 410.58 506.66 420.87 505.82 431.56 504.86 442.56 504.54 453.73 503.79 465.3 502.48 477.11 501.41 489.07 499.51 501.18 496.71 513.14 493.88 524.9 490.02 536.11 485.13 546.3 480.11 555.59 474.05 563.24 467.04 568.75 459.92 572.66 451.91 573.98 443.1 572.47 434.24 569.28 424.66 563.47 414.44 555.3 404.23 546.41 393.91 536.55 383.62 526.41 373.34 517.01 363.11 508.06 353.04 499.89 342.99 493.14 333.12 487.22 323.56 482.04 314.04 478.1 304.87 474.5 296.2 470.96 287.65 468.11 279.68 464.85 272.45 460.96 265.47 457.29 259.35 452.7 254.25 447.11 249.54 441.5 245.97 434.8 243.69 427.02 241.9 419.2 241.45 410.33 242.48 400.45 243.98 390.57 246.83 380.2 250.84 369.55 255.15 358.95 260.49 348.11 266.67 337.25 272.95 326.51 279.96 315.86 287.53 305.56 295.06 295.55 303.1 286.1 311.51 277.48 319.8 269.46 328.47 262.54 337.43 257.02 346.27 252.35 355.44 249.25 364.88 247.92 374.24 247.42 383.92 248.61 393.87 251.43 403.79 254.65 414.02 259.09 424.47 264.53" stroke-dasharray="15 8" transform="rotate(59.142857142857146, 400, 400)" opacity="0.39"></path><path d="M423.49 277.75C432.97 282.46 442.1 287.43 450.77 292.41 459.41 296.58 467.53 300.66 475 304.57 482.36 307.61 488.97 310.63 494.7 313.7 502.5 317.48 512.53 326.39 514.58 332.13 515.26 338.4 511.8 354.95 508.28 365.28 506.17 372.43 503.71 380.42 501.01 389.23 499.11 398.04 497.23 407.3 495.39 416.9 494.35 426.55 493.22 436.59 491.96 446.92 491.24 457.33 490.16 468.03 488.61 478.84 487.32 489.65 485.35 500.42 482.65 510.87 479.98 520.99 476.46 530.44 472.07 538.81 467.61 546.34 462.27 552.34 456.07 556.42 449.81 559.18 442.73 559.73 434.9 557.9 427.04 554.76 418.48 549.43 409.31 542.08 400.13 534.16 390.81 525.33 381.48 516.14 372.16 507.46 362.86 498.99 353.69 491.01 344.55 484.11 335.57 477.8 326.88 472.07 318.26 467.36 309.97 462.97 302.15 458.72 294.47 455.13 287.33 451.31 280.89 447.11 274.69 443.18 269.28 438.6 264.81 433.26 260.68 427.98 257.57 421.82 255.63 414.78 254.11 407.72 253.79 399.76 254.79 390.92 256.2 382.08 258.82 372.83 262.49 363.34 266.43 353.91 271.31 344.32 276.96 334.77 282.74 325.37 289.2 316.14 296.19 307.31 303.19 298.79 310.67 290.85 318.51 283.76 326.28 277.19 334.41 271.67 342.8 267.43 351.11 263.88 359.71 261.72 368.52 261.08 377.28 261.09 386.29 262.53 395.47 265.38 404.64 268.49 414.01 272.67 423.49 277.75" stroke-dasharray="13 11" transform="rotate(62.42857142857143, 400, 400)" opacity="0.36"></path><path d="M421.15 290.97C429.64 295.35 437.73 300.01 445.33 304.76 452.9 308.86 459.94 312.95 466.34 316.96 475.46 321.91 489.61 331.17 494.37 335.96 497.95 340.59 500.29 352.2 499.26 359.52 498.39 364.54 496.88 370.31 494.8 376.84 493.09 383.33 491.04 390.6 488.7 398.66 487 406.72 485.21 415.22 483.39 424.03 482.18 432.87 480.85 442.05 479.36 451.44 478.33 460.84 476.97 470.41 475.22 479.95 473.72 489.39 471.67 498.65 469.03 507.46 466.46 515.91 463.18 523.61 459.2 530.26 455.2 536.16 450.44 540.68 444.96 543.53 439.44 545.33 433.2 545.27 426.29 543.25 419.36 540.23 411.79 535.39 403.64 528.87 395.49 521.88 387.18 514.06 378.84 505.84 370.53 497.94 362.2 490.07 353.99 482.48 345.83 475.66 337.81 469.21 330.05 463.19 322.38 457.97 315.02 453.01 308.1 448.22 301.32 443.99 295.05 439.67 289.41 435.14 284 430.89 279.29 426.21 275.43 421.01 271.87 415.9 269.23 410.14 267.61 403.7 266.34 397.27 266.14 390.13 267.1 382.29 268.41 374.45 270.79 366.32 274.1 358.06 277.65 349.84 282.05 341.57 287.15 333.41 292.39 325.4 298.25 317.63 304.61 310.3 311.01 303.26 317.86 296.82 325.05 291.18 332.22 285.98 339.72 281.75 347.44 278.64 355.14 276.07 363.07 274.71 371.16 274.63 379.24 275.03 387.49 276.64 395.85 279.43 404.2 282.39 412.67 286.28 421.15 290.97" stroke-dasharray="4 11" transform="rotate(65.71428571428572, 400, 400)" opacity="0.32"></path><path d="M417.6 304.18C425.08 308.2 432.15 312.52 438.73 316.97 445.28 320.93 451.31 324.94 456.75 328.95 464.48 334.14 476.35 344.1 480.32 349.19 483.35 354.07 485.51 365.56 484.8 372.46 484.21 377.16 483.06 382.48 481.41 388.44 480.07 394.36 478.38 400.96 476.39 408.24 474.88 415.52 473.22 423.16 471.45 431.04 470.16 438.94 468.7 447.08 467.06 455.31 465.8 463.53 464.24 471.78 462.34 479.88 460.68 487.85 458.56 495.52 455.96 502.67 453.46 509.47 450.39 515.53 446.75 520.6 440.99 526.67 426.4 530.89 417.6 528.54 411.53 525.7 404.9 521.37 397.76 515.65 390.62 509.57 383.33 502.74 376 495.49 368.71 488.44 361.4 481.28 354.19 474.22 347.04 467.69 340.01 461.37 333.24 455.32 326.55 449.86 320.15 444.58 314.15 439.46 308.29 434.8 302.88 430.11 298.06 425.34 293.42 420.82 289.41 416.04 286.16 410.93 283.15 405.93 280.94 400.49 279.63 394.59 278.6 388.71 278.5 382.31 279.41 375.43 280.61 368.55 282.74 361.52 285.68 354.47 288.83 347.46 292.73 340.5 297.26 333.74 301.92 327.1 307.15 320.76 312.84 314.88 318.58 309.24 324.73 304.19 331.21 299.88 337.69 295.92 344.47 292.8 351.45 290.67 358.42 288.93 365.61 288.21 372.91 288.56 380.2 289.24 387.63 290.92 395.11 293.58 402.59 296.35 410.12 299.91 417.6 304.18" stroke-dasharray="12 8" transform="rotate(69, 400, 400)" opacity="0.29"></path><path d="M413.03 317.4C419.51 321.03 425.58 324.96 431.19 329.05 436.78 332.78 441.89 336.63 446.46 340.52 455.46 347.03 462.17 353.97 466.24 361.38 470.13 367.71 471.55 375.32 470.56 384.44 469.81 391.33 466.43 407.56 464.08 416.98 462.76 423.44 461.25 430.15 459.58 437 458.27 443.85 456.76 450.83 455.06 457.8 452.51 471.58 448.71 484.89 443.55 496.31 438.77 506.51 432.07 513.59 423.5 516.21 416.82 516.25 401.03 509.27 392.01 502.43 385.84 497.22 379.56 491.36 373.26 485.09 366.98 478.92 360.7 472.55 354.53 466.17 342.3 454.49 330.66 443.11 320.42 432.39 310.63 423.02 302.56 413.44 297 403.43 293.62 396 290.88 379.84 291.72 371.02 292.8 365.04 294.67 359.07 297.23 353.18 299.98 347.33 303.37 341.63 307.31 336.18 315.52 325.57 325.69 316.5 337.04 309.94 348.51 304.35 361.02 301.82 373.89 302.84 380.34 303.69 386.88 305.36 393.43 307.84 399.99 310.37 406.55 313.57 413.03 317.4" stroke-dasharray="17 15" transform="rotate(72.28571428571428, 400, 400)" opacity="0.25"></path><path d="M407.71 330.62C418.67 336.83 428.13 344.07 435.75 351.67 443.26 358.1 448.85 365.03 452.3 372.36 455.69 378.86 457.11 386.33 456.56 394.85 456.4 403.09 454.77 412.83 451.76 424.03 449.8 435.24 446.9 446.91 443.33 458.28 440.6 469.43 436.78 479.79 431.86 488.29 427.28 495.82 421.21 500.65 413.69 501.88 406.21 501.51 397.14 497.3 386.71 489.22 376.29 480.36 365.57 469.6 355.24 458.26 345.04 447.71 335.4 437.08 327 426.85 318.96 417.53 312.41 408.13 307.98 398.65 304.16 389.49 302.68 379.71 304.03 369.5 306.09 359.28 310.74 349.58 317.32 341.01 324.29 332.69 332.96 325.91 342.66 321.35 352.5 317.41 363.25 316 374.3 317.45 385.39 319.37 396.74 323.81 407.71 330.62" stroke-dasharray="15 7" transform="rotate(75.57142857142857, 400, 400)" opacity="0.22"></path><path d="M401.94 343.83C410.95 349.2 418.69 355.57 424.9 362.39 431.06 368.45 435.68 375.04 438.62 381.98 441.57 388.35 442.97 395.44 442.8 403.18 442.94 410.74 441.83 419.28 439.45 428.69 437.78 438.09 435.17 447.5 431.87 456.31 429.15 464.94 425.48 472.62 420.95 478.58 416.68 483.86 411.27 486.92 404.8 487.16 398.38 486.39 390.78 482.68 382.19 476 373.6 468.79 364.88 459.94 356.55 450.42 348.32 441.31 340.62 431.87 333.99 422.62 327.63 413.91 322.51 405.15 319.13 396.54 316.18 388.14 315.12 379.55 316.34 371.01 318.08 362.47 321.91 354.78 327.31 348.29 333.02 341.94 340.15 337.06 348.15 334.05 356.29 331.38 365.2 330.76 374.35 332.37 383.54 334.2 392.92 338.04 401.94 343.83" stroke-dasharray="9 12" transform="rotate(78.85714285714285, 400, 400)" opacity="0.19"></path><path d="M396.06 357.05C403.17 361.5 409.27 366.85 414.2 372.68 419.11 378.06 422.86 383.98 425.33 390.18 427.84 396.04 429.18 402.41 429.3 409.14 429.64 415.76 428.94 422.93 427.14 430.48 425.78 438.03 423.55 445.23 420.66 451.69 416.48 460.69 404.7 471.6 397 472.11 391.66 471.17 385.5 468.08 378.69 462.78 371.88 457.15 365.08 450.19 358.67 442.58 352.33 435.13 346.47 427.25 341.5 419.41 336.7 411.84 332.89 404.21 330.45 396.8 328.29 389.53 327.6 382.3 328.65 375.42 330.05 368.54 333.07 362.62 337.31 357.87 341.77 353.18 347.36 349.78 353.64 347.89 360.04 346.16 367.07 346.01 374.28 347.55 381.55 349.15 388.95 352.33 396.06 357.05" stroke-dasharray="4 0" transform="rotate(82.14285714285715, 400, 400)" opacity="0.15"></path><path d="M390.41 370.27C400.93 376.94 408.58 386.59 412.53 396.95 416.65 406.66 417.6 417.94 414.83 429.24 413.02 440.53 408.15 449.63 401.5 454.49 395.29 458.48 386.58 457.18 376.42 449.57 366.26 441.22 356.62 429.19 349.58 416.89 342.94 405.01 339.46 392.72 340.96 382.28 343.26 371.83 350.14 365.01 359.24 362.68 368.66 360.52 379.89 362.95 390.41 370.27" stroke-dasharray="16 7" transform="rotate(85.42857142857143, 400, 400)" opacity="0.12"></path><path d="M385.31 383.48C392.23 388.14 397.43 394.99 400.32 402.39 403.3 409.55 404.22 417.59 402.52 425.08 399.47 435.28 385.32 442.03 375.51 436.35 368.75 430.95 362.62 423.01 358.32 414.7 354.19 406.5 352.14 397.96 353.28 390.9 356.99 381.65 374.75 377.68 385.31 383.48" stroke-dasharray="6 3" transform="rotate(88.71428571428572, 400, 400)" opacity="0.08"></path></g></svg>